<svg width="748" height="797" viewBox="0 0 748 797" fill="none" xmlns="http://www.w3.org/2000/svg">
<g clip-path="url(#clip0_38_639)">
<path opacity="0.4" d="M507.17 614.726L429.066 570.652C423.432 567.464 424.166 561.933 430.7 558.267L481.332 529.75L579.819 585.333L529.187 613.849C522.654 617.5 512.854 617.898 507.17 614.726Z" fill="#D6D8E5"/>
<path d="M514.226 610.693L436.09 566.683C430.471 563.495 431.19 557.964 437.723 554.298L488.355 525.781L586.875 581.3L536.243 609.817C529.694 613.467 519.861 613.865 514.226 610.693Z" fill="#B1B4C4"/>
<path d="M586.81 581.3V578.383L582.253 580.949L586.81 581.3Z" fill="#B1B4C4"/>
<path d="M432.316 561.439V558.474L436.988 560.371L432.316 561.439Z" fill="#B1B4C4"/>
<path d="M514.226 607.792L436.09 563.766C430.471 560.578 431.19 555.063 437.723 551.397L488.355 522.832L586.875 578.335L536.243 606.852C529.694 610.502 519.861 610.964 514.226 607.792Z" fill="#D6D8E5"/>
<path d="M488.567 523.007L476.367 483.54L575.949 539.282L586.81 578.383L488.567 523.007Z" fill="#9EA1AF"/>
<path d="M583.919 580.009L586.81 578.415L582.514 575.067L583.919 580.009Z" fill="#9EA1AF"/>
<path d="M485.415 524.49L473.23 485.022L572.813 540.764L583.919 580.009L485.415 524.49Z" fill="#B1B4C4"/>
<path d="M738.249 646.542L352.791 429.344C347.385 426.299 342.992 418.186 342.992 411.077V120.076C342.992 113.046 347.369 109.811 352.791 112.855L738.249 330.054C743.655 333.098 748.049 341.212 748.049 348.305V639.322C748.049 646.351 743.622 649.587 738.249 646.542Z" fill="#B1B4C4"/>
<path d="M740.193 649.539L744.472 647.132L742.626 634.779L740.193 649.539Z" fill="#B1B4C4"/>
<path d="M342.257 114.656L346.471 112.281L352.514 115.645C352.514 115.645 346.079 116.601 345.981 116.569C345.883 116.537 342.257 114.656 342.257 114.656Z" fill="#B1B4C4"/>
<path d="M734.688 648.535L349.231 431.336C343.825 428.292 339.431 420.178 339.431 413.069V122.069C339.431 115.039 343.825 111.803 349.231 114.848L734.688 332.046C740.095 335.091 744.488 343.204 744.488 350.297V641.314C744.472 648.344 740.095 651.579 734.688 648.535Z" fill="#E4E7F2"/>
<path d="M734.002 648.901L348.545 431.703C343.139 428.658 338.745 420.545 338.745 413.452V122.451C338.745 115.422 343.122 112.186 348.545 115.23L734.002 332.429C739.409 335.473 743.802 343.587 743.802 350.68V641.681C743.802 648.758 739.409 651.946 734.002 648.901Z" fill="#D6D8E5"/>
<path d="M738.494 631.224L343.629 408.734L343.841 123.615C343.841 120.698 345.948 119.518 348.529 120.969L733.986 338.167C735.357 339.04 736.496 340.218 737.31 341.603C738.125 342.988 738.592 344.542 738.674 346.137L738.494 631.224Z" fill="white"/>
<path d="M714.044 383.357L364.029 186.147C362.816 185.299 361.824 184.185 361.132 182.895C360.44 181.605 360.067 180.175 360.043 178.719V154.06C360.043 151.207 361.824 149.884 364.029 151.127L714.044 348.337C715.258 349.187 716.251 350.303 716.944 351.596C717.636 352.889 718.008 354.322 718.029 355.781V380.424C718.029 383.293 716.249 384.6 714.044 383.357Z" fill="#E9EAF2"/>
<path d="M695.783 449.365L613.514 403.011C612.302 402.162 611.31 401.049 610.618 399.759C609.926 398.469 609.553 397.039 609.529 395.583V343.762C609.529 340.893 611.309 339.586 613.514 340.829L695.783 387.183C696.997 388.029 697.991 389.143 698.683 390.433C699.375 391.723 699.747 393.154 699.768 394.611V446.432C699.703 449.285 697.923 450.608 695.783 449.365Z" fill="#E9EAF2"/>
<path d="M587.349 466.197L380.966 349.835C380.357 349.413 379.86 348.857 379.513 348.211C379.167 347.566 378.982 346.85 378.973 346.121V337.211C378.973 335.776 379.855 335.107 380.966 335.728L587.349 452.09C587.955 452.515 588.45 453.072 588.796 453.717C589.142 454.362 589.329 455.077 589.341 455.804V464.731C589.341 466.149 588.443 466.819 587.349 466.197Z" fill="#E9EAF2"/>
<path d="M567.031 475.857L381.554 371.402C380.949 370.976 380.454 370.419 380.108 369.775C379.762 369.13 379.575 368.416 379.561 367.688V363.241C379.561 361.806 380.459 361.153 381.554 361.774L567.031 466.277C567.636 466.702 568.132 467.259 568.478 467.903C568.824 468.548 569.011 469.263 569.023 469.991V474.422C569.023 475.809 568.125 476.478 567.031 475.857Z" fill="#E9EAF2"/>
<path d="M567.031 492.689L381.554 388.187C380.948 387.762 380.452 387.205 380.106 386.56C379.76 385.915 379.574 385.201 379.561 384.473V380.026C379.561 378.607 380.459 377.937 381.554 378.559L567.031 483.062C567.636 483.486 568.132 484.043 568.478 484.688C568.824 485.333 569.011 486.048 569.023 486.776V491.223C569.023 492.658 568.125 493.311 567.031 492.689Z" fill="#E9EAF2"/>
<path d="M519.616 482.807L381.554 405.019C380.948 404.595 380.452 404.038 380.106 403.393C379.76 402.748 379.574 402.033 379.561 401.305V396.906C379.561 395.471 380.459 394.818 381.554 395.424L519.616 473.211C520.218 473.643 520.71 474.204 521.055 474.85C521.401 475.497 521.59 476.212 521.609 476.941V481.388C521.609 482.775 520.71 483.428 519.616 482.807Z" fill="#E9EAF2"/>
<path d="M697.711 470.916L611.456 422.314C610.848 421.892 610.35 421.336 610.004 420.691C609.658 420.045 609.473 419.329 609.464 418.6V414.153C609.464 412.719 610.346 412.065 611.456 412.687L697.711 461.288C698.317 461.713 698.812 462.27 699.158 462.914C699.504 463.559 699.691 464.274 699.703 465.002V469.449C699.703 470.884 698.805 471.537 697.711 470.916Z" fill="#E9EAF2"/>
<path d="M697.711 487.764L611.456 439.147C610.848 438.725 610.35 438.169 610.004 437.523C609.658 436.878 609.473 436.162 609.464 435.433V431.002C609.464 429.567 610.346 428.898 611.456 429.519L697.711 478.2C698.318 478.623 698.815 479.18 699.162 479.825C699.508 480.47 699.693 481.186 699.703 481.914V486.345C699.703 487.764 698.805 488.37 697.711 487.764Z" fill="#E9EAF2"/>
<path d="M675.122 491.861L611.424 455.98C610.815 455.558 610.318 455.001 609.971 454.356C609.625 453.71 609.44 452.994 609.431 452.266V447.914C609.431 446.479 610.313 445.826 611.424 446.447L675.122 482.312C675.729 482.736 676.225 483.293 676.571 483.938C676.917 484.583 677.104 485.298 677.115 486.027V490.474C677.115 491.829 676.184 492.546 675.122 491.861Z" fill="#E9EAF2"/>
<path d="M695.783 579.116L613.514 532.763C612.302 531.914 611.31 530.8 610.618 529.51C609.926 528.221 609.553 526.79 609.529 525.335V473.514C609.529 470.66 611.309 469.337 613.514 470.581L695.783 516.934C696.992 517.796 697.977 518.923 698.658 520.224C699.339 521.526 699.697 522.965 699.703 524.426V576.247C699.703 579.037 697.923 580.36 695.783 579.116Z" fill="#E9EAF2"/>
<path d="M697.711 600.667L611.456 552.066C610.848 551.644 610.35 551.087 610.004 550.442C609.658 549.797 609.473 549.08 609.464 548.352V543.921C609.464 542.486 610.346 541.816 611.456 542.438L697.711 591.039C698.312 591.472 698.805 592.032 699.15 592.679C699.495 593.325 699.685 594.04 699.703 594.769V599.201C699.703 600.635 698.805 601.289 697.711 600.667Z" fill="#E9EAF2"/>
<path d="M381.507 184.483C384.499 182.797 384.496 177.327 381.502 172.264C378.507 167.202 373.654 164.465 370.662 166.151C367.67 167.837 367.672 173.307 370.667 178.369C373.661 183.432 378.515 186.169 381.507 184.483Z" fill="#DADCE5"/>
<path d="M558.064 281.102L527.782 264.046C527.479 263.832 527.231 263.553 527.058 263.229C526.885 262.905 526.792 262.546 526.786 262.181V258.228C526.786 257.511 527.227 257.176 527.782 257.495L558.064 274.551C558.369 274.759 558.619 275.035 558.792 275.357C558.965 275.679 559.057 276.036 559.06 276.4V280.321C559.06 281.086 558.586 281.421 558.064 281.102Z" fill="#DADCE5"/>
<path d="M607.063 308.726L576.781 291.702C576.479 291.491 576.232 291.214 576.059 290.893C575.886 290.572 575.792 290.216 575.785 289.853V285.932C575.785 285.214 576.243 284.88 576.781 285.198L607.063 302.254C607.366 302.468 607.614 302.748 607.787 303.072C607.96 303.395 608.053 303.754 608.059 304.119V308.04C608.059 308.694 607.585 309.029 607.063 308.726Z" fill="#DADCE5"/>
<path d="M655.278 335.888L624.996 318.8C624.691 318.592 624.442 318.315 624.268 317.993C624.095 317.672 624.003 317.314 624 316.951V313.03C624 312.312 624.441 311.994 624.996 312.296L655.278 329.352C655.581 329.566 655.829 329.846 656.002 330.17C656.175 330.493 656.268 330.852 656.274 331.217V335.138C656.274 335.872 655.833 336.191 655.278 335.888Z" fill="#DADCE5"/>
<path d="M704.276 363.432L674.011 346.376C673.708 346.163 673.46 345.883 673.287 345.559C673.114 345.235 673.021 344.876 673.015 344.511V340.59C673.015 339.873 673.456 339.554 674.011 339.857L704.276 357.056C704.581 357.264 704.831 357.541 705.004 357.863C705.178 358.184 705.27 358.542 705.273 358.905V362.826C705.273 363.432 704.832 363.815 704.276 363.432Z" fill="#DADCE5"/>
<path d="M637.442 393.575L631.66 379.053L621.158 393.654L632.689 400.158L642.179 405.498L663.33 417.421L648.01 378.894L637.442 393.575Z" fill="#DADCE5"/>
<path d="M687.636 404.104C690.344 402.586 690.356 397.648 687.663 393.076C684.971 388.503 680.593 386.028 677.886 387.546C675.178 389.065 675.166 394.003 677.859 398.575C680.551 403.147 684.929 405.623 687.636 404.104Z" fill="#DADCE5"/>
<path d="M638.03 525.239L632.264 510.718L621.746 525.319L633.293 531.822L642.783 537.162L663.934 549.085L648.614 510.558L638.03 525.239Z" fill="#DADCE5"/>
<path d="M685.538 534.178C688.234 532.659 688.236 527.739 685.543 523.187C682.85 518.636 678.483 516.177 675.788 517.695C673.093 519.214 673.091 524.135 675.783 528.686C678.476 533.238 682.843 535.697 685.538 534.178Z" fill="#DADCE5"/>
<path d="M443.734 327.296L436.09 357.168V331.6L443.734 327.296Z" fill="#232733"/>
<path d="M354.702 276.655L347.059 306.542V280.974L354.702 276.655Z" fill="#232733"/>
<path d="M480.417 461.989L298.436 359.447C297.349 358.686 296.461 357.687 295.842 356.529C295.224 355.372 294.893 354.089 294.875 352.784V261.926C294.875 259.36 296.508 258.18 298.436 259.296L480.417 361.838C481.507 362.594 482.398 363.59 483.019 364.744C483.641 365.899 483.975 367.181 483.994 368.485V459.423C483.994 461.925 482.394 463.105 480.417 461.989Z" fill="#E9EAF2"/>
<path d="M349.084 355.462L339.219 330.643L321.253 355.59L340.983 366.716L357.185 375.849L393.363 396.237L367.165 330.357L349.084 355.462Z" fill="#7391E0"/>
<path d="M450.713 382.223C455.314 379.63 455.311 371.218 450.706 363.434C446.101 355.65 438.638 351.441 434.037 354.034C429.436 356.627 429.439 365.039 434.044 372.823C438.648 380.607 446.112 384.815 450.713 382.223Z" fill="#7391E0"/>
<path d="M432.741 321.095L432.725 287.016L422.827 279.763V321.095L411.819 327.296L427.776 336.286L443.733 327.296L432.741 321.095Z" fill="#353C4C"/>
<path d="M427.776 336.286L436.09 357.168V333.05V331.6L427.776 336.286Z" fill="#232733"/>
<path d="M411.819 327.296L418.891 347.349L436.09 357.168L427.776 336.286L411.819 327.296Z" fill="#2B303F"/>
<path d="M343.694 270.47V229.122H333.796V270.454L322.788 276.655L338.745 285.661L354.703 276.655L343.694 270.47Z" fill="#353C4C"/>
<path d="M338.745 285.661L347.059 306.542V282.425V280.974L338.745 285.661Z" fill="#232733"/>
<path d="M322.788 276.655L329.86 296.707L347.059 306.542L338.745 285.661L322.788 276.655Z" fill="#2B303F"/>
<path opacity="0.4" d="M234.819 463.44L136.233 407.618L17.4434 474.55L123.722 534.707L242.528 467.775V459.104L234.819 463.44Z" fill="#D6D8E5"/>
<path d="M247.33 455.916L136.233 393.319L25.1362 455.916L17.4434 451.58V460.252L136.233 527.2L255.022 460.252V451.58L247.33 455.916Z" fill="#B1B4C4"/>
<path d="M136.233 518.512L17.4434 451.58L136.233 384.648L255.022 451.58L136.233 518.512Z" fill="#E7E9F2"/>
<path d="M135.857 426.794L143.616 422.426V99.1468L135.857 103.514V426.794Z" fill="#B1B4C4"/>
<path d="M136.478 235.418L190.72 319.199L198.478 316.106L143.616 231.497L136.478 235.418Z" fill="#B1B4C4"/>
<path d="M136.151 250.322L190.426 334.517V318.768L136.151 234.876V250.322Z" fill="#D6D8E5"/>
<path d="M128.394 422.426L136.152 426.794V103.514L128.394 99.1468V422.426Z" fill="#D6D8E5"/>
<path d="M190.426 457.382L198.184 461.75V138.471L190.426 134.103V457.382Z" fill="#D6D8E5"/>
<path d="M197.89 461.75L205.648 457.382V134.103L197.89 138.471V461.75Z" fill="#B1B4C4"/>
<path d="M136.151 403.489L190.426 340.064V324.857L136.151 388.378V403.489Z" fill="#D6D8E5"/>
<path d="M136.151 403.489L143.616 399.504L190.426 344.432V338.884L136.151 403.489Z" fill="#B1B4C4"/>
<path d="M136.151 235.418L190.426 171.993V156.786L136.151 220.307V235.418Z" fill="#D6D8E5"/>
<path d="M136.151 235.418L143.616 231.417L190.426 176.36V170.813L136.151 235.418Z" fill="#B1B4C4"/>
<path d="M74.2822 461.702L82.0404 457.335V134.055L74.2822 138.423V461.702Z" fill="#B1B4C4"/>
<path d="M74.9028 270.326L129.145 354.091L136.903 351.015L82.0403 266.405L74.9028 270.326Z" fill="#B1B4C4"/>
<path d="M74.5762 285.23L128.851 369.409V353.677L74.5762 269.769V285.23Z" fill="#D6D8E5"/>
<path d="M66.8345 457.335L74.5763 461.702V138.423L66.8345 134.055V457.335Z" fill="#D6D8E5"/>
<path d="M128.851 492.275L136.609 496.643V173.379L128.851 168.996V492.275Z" fill="#D6D8E5"/>
<path d="M136.315 496.643L144.073 492.275V168.996L136.315 173.379V496.643Z" fill="#B1B4C4"/>
<path d="M74.5762 438.398L128.851 374.973V359.75L74.5762 423.287V438.398Z" fill="#D6D8E5"/>
<path d="M74.5762 438.398L82.0403 434.397L128.851 379.34V373.777L74.5762 438.398Z" fill="#B1B4C4"/>
<path d="M74.5762 270.326L128.851 206.901V191.678L74.5762 255.199V270.326Z" fill="#D6D8E5"/>
<path d="M74.5762 270.326L82.0403 266.326L128.851 211.253V205.706L74.5762 270.326Z" fill="#B1B4C4"/>
<path d="M136.609 189.75L56.5283 144.624L136.609 99.5134L216.689 144.624L136.609 189.75Z" fill="#F7DC6B"/>
<path d="M130.647 60.4285L35.7039 113.923L8.52588 98.6048L103.469 45.1102L130.647 60.4285Z" fill="#353C4C"/>
<path d="M8.52588 120.06V98.6048L35.7039 113.923V135.378L8.52588 120.06Z" fill="#2B303F"/>
<path d="M35.7036 135.378L130.647 81.8838V60.4285L35.7036 113.923V133.29" fill="#232733"/>
<path d="M130.647 36.3591L35.7039 89.8538L8.52588 74.5354L103.469 21.0408L130.647 36.3591Z" fill="#353C4C"/>
<path d="M8.52588 96.0066V74.5354L35.7039 89.8538V111.325L8.52588 96.0066Z" fill="#2B303F"/>
<path d="M35.7036 111.325L130.647 57.8303V36.3591L35.7036 89.8538V109.237" fill="#232733"/>
<path d="M58.8803 102.893L0 69.9288V57.91L58.8803 90.6667V102.893Z" fill="#D6D8E5"/>
<path d="M144.073 138.391L0 57.91L10.6654 51.9006L154.738 132.382L144.073 138.391Z" fill="#E7E9F2"/>
<path d="M123.657 83.8922L49.6851 42.1294V30.0947L123.657 68.7811V83.8922Z" fill="#D6D8E5"/>
<path d="M179.761 102.159L49.6851 30.1107L60.3505 24.1013L190.426 96.1501L179.761 102.159Z" fill="#E7E9F2"/>
<path d="M89.0962 52.2832V64.302L94.1594 98.9077L101.673 103.467L89.0962 52.2832Z" fill="#D6D8E5"/>
<path d="M111.358 108.599L101.624 59.3446L89.0962 52.2832L96.691 100.82L111.358 108.599Z" fill="#E7E9F2"/>
<path d="M89.0962 64.302L50.2401 74.2963L30.2812 63.0427L87.3976 51.2949L89.0962 52.2832V64.302Z" fill="#B1B4C4"/>
<path d="M89.0961 52.2832L34.985 65.7047L23.356 59.1533L77.8917 45.5565L89.0961 52.2832Z" fill="#E7E9F2"/>
<path d="M136.609 90.2523L56.5283 45.1261L136.609 0L216.689 45.1261L136.609 90.2523Z" fill="#E7E9F2"/>
<path d="M56.5283 184.474V45.1261L136.609 90.2523V229.6L56.5283 184.474Z" fill="#D6D8E5"/>
<path d="M216.689 45.1261V184.474L136.609 229.6V90.2363L216.689 45.1261Z" fill="#B1B4C4"/>
<path d="M136.609 138.79L90.6314 112.887L75.8501 66.9799L136.609 101.219V138.79Z" fill="#7391E0"/>
<path d="M216.689 56.0929V93.6634L136.609 138.806V101.235L216.689 56.0929Z" fill="#7C4CF2"/>
<path d="M493.696 349.516L147.192 154.267V142.249L493.696 337.498V349.516Z" fill="#D6D8E5"/>
<path d="M493.696 337.498L147.192 142.265L157.858 136.255L504.361 331.488L493.696 337.498Z" fill="#E7E9F2"/>
<path d="M543.381 321.717L196.877 126.468V114.449L543.381 309.698V321.717Z" fill="#D6D8E5"/>
<path d="M543.381 309.698L196.877 114.449L207.543 108.44L554.046 303.689L543.381 309.698Z" fill="#E7E9F2"/>
<path d="M554.046 315.74L493.696 349.516V337.482L554.046 303.721V315.74Z" fill="#B1B4C4"/>
<path d="M554.046 303.721L493.729 337.498L484.697 332.413L545.014 298.636L554.046 303.721Z" fill="#E7E9F2"/>
<path d="M499.951 297.217L461.079 307.212L441.12 295.958L498.236 284.21L499.951 285.198V297.217Z" fill="#B1B4C4"/>
<path d="M499.952 285.198L445.84 298.62L434.211 292.053L488.731 278.472L499.952 285.198Z" fill="#E7E9F2"/>
<path d="M412.26 235.848V247.867L417.323 282.473L424.836 287.016L412.26 235.848Z" fill="#D6D8E5"/>
<path d="M434.522 292.164L424.787 242.91L412.26 235.848L419.871 284.386L434.522 292.164Z" fill="#E7E9F2"/>
<path d="M412.26 247.867L373.404 257.861L353.445 246.608L410.561 234.86L412.26 235.848V247.867Z" fill="#B1B4C4"/>
<path d="M412.26 235.848L358.165 249.27L346.536 242.718L401.055 229.122L412.26 235.848Z" fill="#E7E9F2"/>
<path d="M324.274 186.227V198.246L329.321 232.852L336.851 237.41L324.274 186.227Z" fill="#D6D8E5"/>
<path d="M346.536 242.543L336.802 193.288L324.274 186.227L331.869 234.764L346.536 242.543Z" fill="#E7E9F2"/>
<path d="M324.274 198.246L285.418 208.24L265.459 196.987L322.576 185.239L324.274 186.227V198.246Z" fill="#B1B4C4"/>
<path d="M324.274 186.227L270.163 199.648L258.534 193.097L313.07 179.5L324.274 186.227Z" fill="#E7E9F2"/>
<path d="M236.289 136.638V148.656L241.335 183.262L248.865 187.805L236.289 136.638Z" fill="#D6D8E5"/>
<path d="M258.534 192.954L248.816 143.699L236.289 136.638L243.883 185.175L258.534 192.954Z" fill="#E7E9F2"/>
<path d="M236.289 148.656L197.432 158.651L177.474 147.397L234.59 135.649L236.289 136.638V148.656Z" fill="#B1B4C4"/>
<path d="M236.289 136.638L182.178 150.059L170.549 143.508L225.068 129.911L236.289 136.638Z" fill="#E7E9F2"/>
<path opacity="0.4" d="M153.807 797L108.369 771.623L176.38 733.638L221.818 758.999L153.807 797Z" fill="#D6D8E5"/>
<path d="M154.755 745.849L117.124 724.632L154.755 703.432L192.386 724.648L154.755 745.849Z" fill="#D6D8E5"/>
<path d="M154.755 788.265L117.124 767.049V724.632L154.755 745.848V788.265Z" fill="#B1B6C4"/>
<path d="M192.386 767.049L154.755 788.265V745.848L192.386 724.632V767.049Z" fill="#C4C7D6"/>
<path d="M205.338 753.707C208.595 754.589 212.077 754.176 215.023 752.559C217.359 752.559 230.033 747.331 231.765 751.778C233.267 755.684 227.779 759.286 224.839 759.971C218.437 761.565 213.7 764.61 211.136 765.136C209.225 765.534 206.743 765.789 205.207 764.323C203.378 762.554 203.541 756.034 205.338 753.707Z" fill="#38226D"/>
<path d="M211.136 764.052C213.7 763.526 218.437 760.418 224.839 758.903C227.305 758.314 231.536 755.715 231.96 752.527C232.532 756.114 227.583 759.302 224.839 759.939C218.437 761.533 213.7 764.578 211.136 765.104C209.225 765.503 206.742 765.758 205.207 764.291C204.82 763.858 204.535 763.346 204.374 762.793C205.322 763.503 206.428 763.987 207.602 764.205C208.776 764.424 209.986 764.372 211.136 764.052Z" fill="#7391E0"/>
<path d="M182.472 741.832C185.734 742.714 189.222 742.302 192.174 740.684C194.509 740.684 207.184 735.456 208.899 739.903C210.418 743.808 204.93 747.411 201.99 748.096C195.587 749.61 190.851 752.735 188.27 753.261C186.359 753.659 183.877 753.914 182.358 752.448C180.528 750.678 180.675 744.159 182.472 741.832Z" fill="#38226D"/>
<path d="M188.27 752.177C190.85 751.651 195.587 748.542 201.989 747.028C204.439 746.438 208.686 743.84 209.111 740.652C209.682 744.239 204.717 747.427 201.989 748.064C195.587 749.579 190.85 752.703 188.27 753.229C186.359 753.627 183.876 753.882 182.357 752.416C181.959 751.987 181.668 751.474 181.508 750.917C182.457 751.627 183.562 752.11 184.736 752.328C185.91 752.547 187.12 752.495 188.27 752.177Z" fill="#7391E0"/>
<path d="M146.882 726.434C156.682 730.674 166.09 731.343 173.717 727.342L181.59 722.911C182.063 732.826 182.504 742.358 182.504 742.358C182.504 742.358 188.548 746.821 193.252 742.836C193.252 742.836 194.231 728.92 195.228 715.228L203.492 710.573C203.294 711.302 203.184 712.051 203.166 712.805C203.166 715.419 205.077 754.09 205.077 754.09C205.077 754.09 211.169 757.628 215.873 753.643C215.873 753.643 219.041 708.82 219.76 701.663C220.577 693.613 211.414 689.644 205.632 691.716C204.276 692.179 200.961 693.39 196.763 694.904C196.943 692.657 197.09 690.919 197.188 689.931C198.021 681.865 188.858 677.896 183.06 679.969C177.768 681.849 142.097 694.984 142.097 694.984C142.319 698.326 142.739 701.652 143.354 704.947L129.275 703.799C128.426 716.662 137.017 722.194 146.882 726.434ZM171.496 704.118L180.92 698.81C180.754 699.458 180.65 700.119 180.61 700.786L171.496 704.118Z" fill="#7391E0"/>
<path d="M121.55 664.491C121.55 664.491 122.709 681.594 125.012 684.065C127.315 686.536 135.09 688.21 135.09 688.21L141.068 697.774C141.068 697.774 135.563 667.248 134.42 666.515C133.277 665.782 121.55 664.491 121.55 664.491Z" fill="#FFCEA9"/>
<path d="M133.064 645.57C131.609 644.909 129.956 644.794 128.42 645.247C126.884 645.7 125.572 646.689 124.735 648.025C122.53 651.595 120.243 663.805 120.031 665.893C120.031 665.893 123.118 670.07 127.756 669.368L133.064 645.57Z" fill="#EDEDED"/>
<path d="M135.171 645.713C138.209 645.857 140.463 646.622 140.839 645.713C141.164 644.193 141.393 642.655 141.525 641.107C141.182 640.246 140.871 639.322 140.871 639.322C137.082 637.042 135.873 632.946 135.367 628.355C134.518 620.385 138.944 613.371 147.127 612.542C154.82 611.761 160.471 617.037 161.99 624.274C162.79 627.861 164.423 634.619 162.235 640.501C161.01 643.785 159.426 646.399 157.858 646.877C156.332 646.834 154.81 646.701 153.301 646.479C153.301 646.479 152.892 648.694 152.615 650.113C152.337 651.532 152.451 652.297 155.342 654.034C158.233 655.772 150.949 659.374 146.196 659.023C141.443 658.673 136.069 655.835 134.583 652.855C132.95 649.571 133.097 645.57 135.171 645.713Z" fill="#FFCEA9"/>
<path d="M211.904 698.029C211.907 698.451 211.795 698.867 211.58 699.234C211.365 699.601 211.054 699.905 210.679 700.117L187.6 713.124C187.225 713.335 186.8 713.446 186.367 713.446C185.934 713.446 185.509 713.335 185.134 713.124L152.762 694.888C152.389 694.678 152.08 694.376 151.865 694.012C151.65 693.649 151.537 693.236 151.537 692.816V692.625L211.904 698.029Z" fill="#E5E5E5"/>
<path d="M210.695 700.117L187.617 713.124C187.24 713.337 186.811 713.447 186.375 713.443V698.029H211.92C211.923 698.451 211.812 698.867 211.596 699.234C211.381 699.601 211.07 699.905 210.695 700.117Z" fill="#E5E5E5"/>
<path d="M187.225 711.944C186.962 712.092 186.663 712.171 186.359 712.171C186.055 712.171 185.757 712.092 185.494 711.944L151.897 692.992C151.456 692.752 151.456 692.354 151.897 692.115L176.657 678.151L211.937 698.029L187.225 711.944Z" fill="#F4F4F4"/>
<path d="M165.682 698.029L165.845 698.124L176.625 704.197L182.537 700.866L182.717 700.77L171.757 694.601L165.682 698.029Z" fill="#BFBFBF"/>
<path d="M165.845 698.124L176.624 704.197L182.537 700.866L171.757 694.793L165.845 698.124Z" fill="#E5E5E5"/>
<path d="M202.757 699.017L204.391 699.893C204.467 699.929 204.551 699.947 204.636 699.947C204.721 699.947 204.804 699.929 204.881 699.893L206.367 699.049C206.514 698.969 206.53 698.841 206.367 698.778L204.734 697.901C204.658 697.862 204.574 697.842 204.489 697.842C204.403 697.842 204.319 697.862 204.244 697.901L202.757 698.73C202.659 698.826 202.643 698.937 202.757 699.017Z" fill="#3A2C6D"/>
<path d="M200.569 697.774L202.202 698.65C202.277 698.689 202.361 698.71 202.447 698.71C202.532 698.71 202.616 698.689 202.692 698.65L204.178 697.805C204.325 697.726 204.341 697.598 204.178 697.534L202.545 696.658C202.469 696.619 202.385 696.598 202.3 696.598C202.214 696.598 202.13 696.619 202.055 696.658L200.569 697.503C200.454 697.582 200.438 697.71 200.569 697.774Z" fill="#3A2C6D"/>
<path d="M198.364 696.578L199.997 697.455C200.072 697.494 200.157 697.514 200.242 697.514C200.327 697.514 200.412 697.494 200.487 697.455L201.973 696.626C202.12 696.53 202.137 696.419 201.973 696.339L200.422 695.462C200.345 695.427 200.261 695.408 200.177 695.408C200.092 695.408 200.008 695.427 199.932 695.462L198.445 696.307C198.249 696.339 198.233 696.466 198.364 696.578Z" fill="#3A2C6D"/>
<path d="M196.159 695.303L197.792 696.179C197.872 696.214 197.958 696.232 198.045 696.232C198.132 696.232 198.219 696.214 198.298 696.179L199.785 695.351C199.932 695.351 199.948 695.143 199.785 695.064L198.151 694.187C198.073 694.148 197.986 694.127 197.898 694.127C197.81 694.127 197.723 694.148 197.645 694.187L196.159 695.016C195.995 695.096 195.995 695.223 196.159 695.303Z" fill="#3A2C6D"/>
<path d="M193.954 694.059L195.587 694.936C195.663 694.975 195.747 694.996 195.832 694.996C195.917 694.996 196.002 694.975 196.077 694.936L197.563 694.107C197.71 694.028 197.727 693.9 197.563 693.836L195.93 692.96C195.852 692.92 195.765 692.9 195.677 692.9C195.589 692.9 195.502 692.92 195.424 692.96L193.954 693.788C193.856 693.852 193.839 693.98 193.954 694.059Z" fill="#3A2C6D"/>
<path d="M191.765 692.816L193.399 693.693C193.475 693.728 193.559 693.747 193.644 693.747C193.728 693.747 193.812 693.728 193.889 693.693L195.375 692.848C195.522 692.848 195.538 692.641 195.375 692.577L193.742 691.7C193.666 691.661 193.582 691.641 193.497 691.641C193.411 691.641 193.327 691.661 193.252 691.7L191.765 692.529C191.651 692.625 191.635 692.736 191.765 692.816Z" fill="#3A2C6D"/>
<path d="M189.56 691.573L191.193 692.449C191.269 692.489 191.353 692.509 191.438 692.509C191.524 692.509 191.608 692.489 191.683 692.449L193.17 691.605C193.317 691.525 193.333 691.397 193.17 691.334L191.618 690.457C191.543 690.418 191.459 690.398 191.373 690.398C191.288 690.398 191.204 690.418 191.128 690.457L189.642 691.302C189.462 691.382 189.462 691.509 189.56 691.573Z" fill="#3A2C6D"/>
<path d="M187.355 690.329L188.988 691.206C189.067 691.245 189.154 691.266 189.242 691.266C189.33 691.266 189.416 691.245 189.495 691.206L190.981 690.377C191.128 690.282 191.128 690.17 190.981 690.09L189.348 689.214C189.268 689.178 189.182 689.159 189.095 689.159C189.007 689.159 188.921 689.178 188.841 689.214L187.355 690.059C187.241 690.202 187.224 690.202 187.355 690.329Z" fill="#3A2C6D"/>
<path d="M185.151 689.102L186.784 689.979C186.861 690.013 186.944 690.031 187.029 690.031C187.113 690.031 187.197 690.013 187.274 689.979L188.76 689.15C188.907 689.07 188.923 688.943 188.76 688.863L187.127 687.986C187.048 687.947 186.962 687.927 186.874 687.927C186.786 687.927 186.699 687.947 186.621 687.986L185.151 688.815C185.053 688.895 185.036 689.022 185.151 689.102Z" fill="#3A2C6D"/>
<path d="M182.929 687.859L184.563 688.736C184.638 688.775 184.722 688.795 184.808 688.795C184.893 688.795 184.977 688.775 185.053 688.736L186.539 687.907C186.686 687.827 186.702 687.699 186.539 687.636L184.906 686.759C184.83 686.72 184.746 686.699 184.661 686.699C184.575 686.699 184.491 686.72 184.416 686.759L182.929 687.588C182.929 687.652 182.831 687.779 182.929 687.859Z" fill="#3A2C6D"/>
<path d="M180.757 686.615L182.39 687.492C182.467 687.528 182.55 687.546 182.635 687.546C182.72 687.546 182.804 687.528 182.88 687.492L184.366 686.647C184.513 686.568 184.53 686.44 184.366 686.376L182.815 685.5C182.739 685.461 182.655 685.44 182.57 685.44C182.484 685.44 182.4 685.461 182.325 685.5L180.838 686.329C180.642 686.424 180.626 686.536 180.757 686.615Z" fill="#3A2C6D"/>
<path d="M178.552 685.42L180.185 686.297C180.264 686.336 180.35 686.356 180.438 686.356C180.526 686.356 180.613 686.336 180.692 686.297L182.178 685.452C182.325 685.372 182.325 685.245 182.178 685.181L180.545 684.304C180.466 684.265 180.379 684.245 180.291 684.245C180.203 684.245 180.117 684.265 180.038 684.304L178.552 685.149C178.438 685.181 178.421 685.308 178.552 685.42Z" fill="#3A2C6D"/>
<path d="M176.396 684.129L178.029 685.006C178.105 685.045 178.189 685.065 178.274 685.065C178.359 685.065 178.444 685.045 178.519 685.006L180.005 684.177C180.152 684.081 180.169 683.969 180.005 683.89L178.372 683.013C178.293 682.977 178.206 682.959 178.119 682.959C178.031 682.959 177.945 682.977 177.866 683.013L176.396 683.858C176.249 683.938 176.232 684.065 176.396 684.129Z" fill="#3A2C6D"/>
<path d="M173.129 682.232L175.742 683.714C175.819 683.75 175.903 683.768 175.987 683.768C176.072 683.768 176.156 683.75 176.232 683.714L177.719 682.886C177.866 682.806 177.882 682.678 177.719 682.599L175.105 681.132C175.03 681.093 174.946 681.073 174.86 681.073C174.775 681.073 174.691 681.093 174.615 681.132L173.129 681.977C172.982 682.104 172.966 682.232 173.129 682.232Z" fill="#3A2C6D"/>
<path d="M197.367 698.379L199.001 699.256C199.077 699.291 199.161 699.31 199.246 699.31C199.33 699.31 199.414 699.291 199.491 699.256L200.977 698.411C201.124 698.331 201.14 698.204 200.977 698.14L199.344 697.263C199.268 697.224 199.184 697.204 199.099 697.204C199.013 697.204 198.929 697.224 198.854 697.263L197.367 698.092C197.253 698.172 197.237 698.3 197.367 698.379Z" fill="#3A2C6D"/>
<path d="M195.162 697.136L196.796 698.013C196.875 698.048 196.961 698.067 197.049 698.067C197.136 698.067 197.223 698.048 197.302 698.013L198.772 697.168C198.919 697.088 198.935 696.961 198.772 696.897L197.139 696.02C197.063 695.981 196.979 695.961 196.894 695.961C196.808 695.961 196.724 695.981 196.649 696.02L195.162 696.865C195.048 696.945 195.032 697.072 195.162 697.136Z" fill="#3A2C6D"/>
<path d="M192.958 695.893L194.591 696.769C194.669 696.808 194.756 696.829 194.844 696.829C194.932 696.829 195.019 696.808 195.097 696.769L196.567 695.924C196.714 695.845 196.731 695.717 196.567 695.654L194.934 694.777C194.859 694.738 194.774 694.717 194.689 694.717C194.604 694.717 194.519 694.738 194.444 694.777L192.958 695.622C192.843 695.701 192.827 695.829 192.958 695.893Z" fill="#3A2C6D"/>
<path d="M190.753 694.649L192.304 695.526C192.383 695.565 192.469 695.586 192.557 695.586C192.645 695.586 192.732 695.565 192.811 695.526L194.281 694.681C194.428 694.601 194.444 694.474 194.281 694.41L192.647 693.533C192.572 693.494 192.488 693.474 192.402 693.474C192.317 693.474 192.233 693.494 192.157 693.533L190.671 694.378C190.638 694.458 190.622 694.585 190.753 694.649Z" fill="#3A2C6D"/>
<path d="M188.564 693.39L190.197 694.267C190.277 694.302 190.363 694.321 190.451 694.321C190.538 694.321 190.624 694.302 190.704 694.267L192.174 693.422C192.321 693.422 192.337 693.215 192.174 693.151L190.54 692.274C190.465 692.235 190.381 692.215 190.295 692.215C190.21 692.215 190.126 692.235 190.05 692.274L188.564 693.103C188.45 693.231 188.433 693.39 188.564 693.39Z" fill="#3A2C6D"/>
<path d="M186.359 692.179L187.992 693.055C188.071 693.091 188.158 693.11 188.245 693.11C188.333 693.11 188.419 693.091 188.498 693.055L189.968 692.21C190.115 692.131 190.132 692.003 189.968 691.939L188.335 691.063C188.26 691.024 188.176 691.003 188.09 691.003C188.005 691.003 187.921 691.024 187.845 691.063L186.359 691.892C186.195 691.987 186.195 692.099 186.359 692.179Z" fill="#3A2C6D"/>
<path d="M184.154 690.935L185.787 691.812C185.867 691.848 185.953 691.866 186.04 691.866C186.128 691.866 186.214 691.848 186.294 691.812L187.764 690.967C187.911 690.887 187.927 690.76 187.764 690.696L186.13 689.819C186.055 689.78 185.971 689.76 185.885 689.76C185.8 689.76 185.716 689.78 185.64 689.819L184.154 690.648C184.04 690.744 184.023 690.856 184.154 690.935Z" fill="#3A2C6D"/>
<path d="M181.949 689.692L183.501 690.569C183.58 690.604 183.666 690.623 183.754 690.623C183.841 690.623 183.928 690.604 184.007 690.569L185.493 689.724C185.624 689.644 185.64 689.517 185.493 689.453L183.86 688.576C183.784 688.537 183.7 688.517 183.615 688.517C183.53 688.517 183.445 688.537 183.37 688.576L181.884 689.421C181.835 689.501 181.818 689.628 181.949 689.692Z" fill="#3A2C6D"/>
<path d="M179.744 688.449L181.377 689.325C181.456 689.364 181.543 689.385 181.631 689.385C181.719 689.385 181.805 689.364 181.884 689.325L183.37 688.48C183.501 688.401 183.517 688.273 183.37 688.21L181.818 687.333C181.74 687.294 181.653 687.273 181.565 687.273C181.477 687.273 181.39 687.294 181.312 687.333L179.826 688.178C179.662 688.257 179.662 688.385 179.744 688.449Z" fill="#3A2C6D"/>
<path d="M177.539 687.205L179.173 688.082C179.251 688.121 179.338 688.142 179.426 688.142C179.514 688.142 179.601 688.121 179.679 688.082L181.165 687.237C181.312 687.157 181.312 687.03 181.165 686.966L179.532 686.09C179.452 686.054 179.366 686.035 179.279 686.035C179.191 686.035 179.105 686.054 179.026 686.09L177.539 686.934C177.425 687.014 177.409 687.142 177.539 687.205Z" fill="#3A2C6D"/>
<path d="M175.334 685.962L176.967 686.839C177.046 686.878 177.133 686.898 177.221 686.898C177.309 686.898 177.395 686.878 177.474 686.839L178.96 686.01C179.107 685.914 179.107 685.787 178.96 685.723L177.327 684.846C177.247 684.81 177.161 684.792 177.074 684.792C176.986 684.792 176.9 684.81 176.82 684.846L175.334 685.691C175.22 685.771 175.203 685.898 175.334 685.962Z" fill="#3A2C6D"/>
<path d="M173.129 684.719L174.762 685.595C174.841 685.634 174.928 685.655 175.016 685.655C175.104 685.655 175.19 685.634 175.269 685.595L176.755 684.766C176.902 684.671 176.918 684.559 176.755 684.48L175.122 683.603C175.042 683.567 174.956 683.549 174.869 683.549C174.781 683.549 174.695 683.567 174.615 683.603L173.129 684.448C173.015 684.527 172.998 684.655 173.129 684.719Z" fill="#3A2C6D"/>
<path d="M199.572 699.623L202.186 701.089C202.261 701.128 202.345 701.149 202.431 701.149C202.516 701.149 202.6 701.128 202.676 701.089L204.162 700.26C204.309 700.165 204.325 700.053 204.162 699.973L201.549 698.507C201.473 698.468 201.389 698.447 201.304 698.447C201.218 698.447 201.134 698.468 201.059 698.507L199.572 699.336C199.458 699.431 199.442 699.543 199.572 699.623Z" fill="#3A2C6D"/>
<path d="M172.95 682.359L174.583 683.236C174.617 683.236 174.651 683.25 174.675 683.274C174.7 683.297 174.713 683.33 174.713 683.364C174.713 683.398 174.7 683.43 174.675 683.454C174.651 683.478 174.617 683.491 174.583 683.491L172.95 684.384C172.878 684.416 172.8 684.432 172.721 684.432C172.642 684.432 172.564 684.416 172.492 684.384L172.362 684.304C172.295 684.273 172.223 684.257 172.149 684.257C172.076 684.257 172.003 684.273 171.937 684.304L170.304 685.245C170.232 685.276 170.154 685.293 170.075 685.293C169.996 685.293 169.918 685.276 169.846 685.245L168.85 684.687C168.719 684.607 168.719 684.495 168.85 684.432L170.483 683.555L170.81 683.38L171.039 683.236L171.267 683.109L172.607 682.359C172.717 682.316 172.84 682.316 172.95 682.359Z" fill="#3A2C6D"/>
<path d="M194.231 703.815L195.865 704.691C195.94 704.731 196.024 704.751 196.11 704.751C196.195 704.751 196.279 704.731 196.355 704.691L197.841 703.863C197.988 703.767 198.004 703.655 197.841 703.576L196.289 702.699C196.213 702.663 196.129 702.645 196.044 702.645C195.96 702.645 195.876 702.663 195.799 702.699L194.313 703.544C194.117 703.623 194.101 703.751 194.231 703.815Z" fill="#3A2C6D"/>
<path d="M192.027 702.587L193.66 703.464C193.738 703.503 193.825 703.524 193.913 703.524C194.001 703.524 194.088 703.503 194.166 703.464L195.636 702.635C195.783 702.635 195.799 702.428 195.636 702.348L194.003 701.488C193.927 701.448 193.843 701.428 193.758 701.428C193.672 701.428 193.588 701.448 193.513 701.488L192.027 702.316C191.912 702.38 191.896 702.508 192.027 702.587Z" fill="#3A2C6D"/>
<path d="M189.838 701.36L191.471 702.237C191.547 702.276 191.631 702.296 191.716 702.296C191.802 702.296 191.886 702.276 191.961 702.237L193.448 701.392C193.595 701.312 193.611 701.185 193.448 701.121L191.814 700.244C191.739 700.205 191.655 700.185 191.569 700.185C191.484 700.185 191.4 700.205 191.324 700.244L189.838 701.089C189.724 701.153 189.707 701.36 189.838 701.36Z" fill="#3A2C6D"/>
<path d="M171.137 690.808L172.77 691.684C172.846 691.723 172.93 691.744 173.015 691.744C173.101 691.744 173.185 691.723 173.26 691.684L174.746 690.856C174.893 690.856 174.91 690.648 174.746 690.569L173.113 689.692C173.035 689.653 172.948 689.632 172.86 689.632C172.772 689.632 172.685 689.653 172.607 689.692L171.137 690.521C171.039 690.616 171.023 690.744 171.137 690.808Z" fill="#3A2C6D"/>
<path d="M168.948 689.58L170.581 690.457C170.661 690.493 170.747 690.511 170.834 690.511C170.922 690.511 171.008 690.493 171.088 690.457L172.557 689.612C172.704 689.533 172.721 689.405 172.557 689.341L170.924 688.465C170.849 688.425 170.765 688.405 170.679 688.405C170.594 688.405 170.51 688.425 170.434 688.465L168.948 689.293C168.834 689.389 168.817 689.501 168.948 689.58Z" fill="#3A2C6D"/>
<path d="M166.759 688.337L168.393 689.214C168.468 689.253 168.552 689.273 168.638 689.273C168.723 689.273 168.807 689.253 168.883 689.214L170.369 688.385C170.516 688.289 170.532 688.178 170.369 688.098L168.736 687.221C168.659 687.186 168.575 687.167 168.491 687.167C168.406 687.167 168.322 687.186 168.246 687.221L166.759 688.066C166.596 688.146 166.596 688.273 166.759 688.337Z" fill="#3A2C6D"/>
<path d="M164.554 687.11L166.188 687.986C166.263 688.025 166.347 688.046 166.433 688.046C166.518 688.046 166.602 688.025 166.678 687.986L168.164 687.157C168.311 687.078 168.327 686.95 168.164 686.871L166.531 686.01C166.452 685.971 166.366 685.95 166.277 685.95C166.189 685.95 166.103 685.971 166.024 686.01L164.554 686.839C164.456 686.902 164.44 687.014 164.554 687.11Z" fill="#3A2C6D"/>
<path d="M187.078 699.766L189.201 700.946C189.277 700.985 189.361 701.005 189.446 701.005C189.532 701.005 189.616 700.985 189.691 700.946L191.177 700.117C191.324 700.037 191.341 699.909 191.177 699.83L189.054 698.634C188.979 698.595 188.895 698.575 188.809 698.575C188.724 698.575 188.64 698.595 188.564 698.634L187.078 699.463C186.963 699.591 186.947 699.766 187.078 699.766Z" fill="#3A2C6D"/>
<path d="M173.341 692.051L175.465 693.247C175.541 693.282 175.625 693.3 175.71 693.3C175.795 693.3 175.878 693.282 175.955 693.247L177.441 692.402C177.588 692.322 177.604 692.194 177.441 692.131L175.318 690.935C175.242 690.896 175.158 690.876 175.073 690.876C174.987 690.876 174.903 690.896 174.828 690.935L173.341 691.78C173.227 691.796 173.211 691.987 173.341 692.051Z" fill="#3A2C6D"/>
<path d="M176.102 693.613L186.44 699.431C186.517 699.467 186.601 699.485 186.685 699.485C186.77 699.485 186.854 699.467 186.93 699.431L188.417 698.586C188.564 698.507 188.58 698.379 188.417 698.315L178.078 692.481C178.003 692.442 177.918 692.422 177.833 692.422C177.748 692.422 177.663 692.442 177.588 692.481L176.102 693.31C175.987 693.39 175.971 693.533 176.102 693.613Z" fill="#3A2C6D"/>
<path d="M194.64 699.24L196.273 700.117C196.348 700.156 196.432 700.176 196.518 700.176C196.603 700.176 196.687 700.156 196.763 700.117L198.249 699.272C198.396 699.192 198.413 699.065 198.249 699.001L196.698 698.124C196.621 698.089 196.537 698.07 196.453 698.07C196.368 698.07 196.284 698.089 196.208 698.124L194.721 698.969C194.525 699.049 194.509 699.176 194.64 699.24Z" fill="#3A2C6D"/>
<path d="M192.435 697.997L194.068 698.873C194.146 698.913 194.233 698.933 194.321 698.933C194.409 698.933 194.496 698.913 194.574 698.873L196.044 698.045C196.191 697.965 196.208 697.837 196.044 697.758L194.411 696.881C194.336 696.842 194.251 696.821 194.166 696.821C194.081 696.821 193.997 696.842 193.921 696.881L192.435 697.71C192.32 697.805 192.304 697.933 192.435 697.997Z" fill="#3A2C6D"/>
<path d="M190.246 696.769L191.88 697.646C191.955 697.685 192.039 697.706 192.125 697.706C192.21 697.706 192.294 697.685 192.37 697.646L193.856 696.817C194.003 696.737 194.019 696.61 193.856 696.546L192.223 695.669C192.147 695.63 192.063 695.61 191.978 695.61C191.892 695.61 191.808 695.63 191.733 695.669L190.246 696.498C190.132 696.578 190.116 696.69 190.246 696.769Z" fill="#3A2C6D"/>
<path d="M188.041 695.526L189.674 696.403C189.75 696.442 189.834 696.462 189.919 696.462C190.005 696.462 190.089 696.442 190.164 696.403L191.651 695.558C191.798 695.478 191.814 695.351 191.651 695.287L190.017 694.41C189.942 694.371 189.858 694.351 189.772 694.351C189.687 694.351 189.603 694.371 189.527 694.41L188.041 695.255C187.927 695.335 187.911 695.462 188.041 695.526Z" fill="#3A2C6D"/>
<path d="M185.837 694.283L187.47 695.159C187.545 695.198 187.629 695.219 187.715 695.219C187.8 695.219 187.884 695.198 187.96 695.159L189.446 694.33C189.593 694.235 189.609 694.123 189.446 694.044L187.813 693.167C187.733 693.131 187.647 693.113 187.56 693.113C187.472 693.113 187.386 693.131 187.307 693.167L185.82 694.012C185.739 694.091 185.722 694.219 185.837 694.283Z" fill="#3A2C6D"/>
<path d="M183.648 693.055L185.281 693.932C185.356 693.971 185.44 693.991 185.526 693.991C185.611 693.991 185.695 693.971 185.771 693.932L187.257 693.103C187.404 693.023 187.421 692.896 187.257 692.816L185.624 691.939C185.547 691.904 185.464 691.886 185.379 691.886C185.294 691.886 185.21 691.904 185.134 691.939L183.648 692.768C183.533 692.848 183.517 692.976 183.648 693.055Z" fill="#3A2C6D"/>
<path d="M181.443 691.796L183.076 692.673C183.155 692.708 183.242 692.727 183.329 692.727C183.417 692.727 183.503 692.708 183.582 692.673L185.052 691.828C185.199 691.828 185.216 691.621 185.052 691.557L183.419 690.68C183.344 690.641 183.259 690.621 183.174 690.621C183.089 690.621 183.005 690.641 182.929 690.68L181.443 691.509C181.296 691.621 181.296 691.796 181.443 691.796Z" fill="#3A2C6D"/>
<path d="M179.254 690.569L180.887 691.445C180.963 691.484 181.047 691.505 181.132 691.505C181.218 691.505 181.302 691.484 181.377 691.445L182.864 690.601C183.011 690.521 183.027 690.393 182.864 690.33L181.23 689.453C181.154 689.417 181.07 689.399 180.985 689.399C180.901 689.399 180.817 689.417 180.74 689.453L179.254 690.298C179.14 690.377 179.123 690.505 179.254 690.569Z" fill="#3A2C6D"/>
<path d="M177.049 689.325L178.601 690.202C178.676 690.241 178.76 690.262 178.846 690.262C178.931 690.262 179.015 690.241 179.091 690.202L180.577 689.373C180.724 689.293 180.74 689.166 180.577 689.086L178.944 688.209C178.868 688.17 178.784 688.15 178.699 688.15C178.613 688.15 178.529 688.17 178.454 688.209L176.967 689.038C176.935 689.134 176.918 689.262 177.049 689.325Z" fill="#3A2C6D"/>
<path d="M174.844 688.098L176.477 688.975C176.556 689.014 176.643 689.034 176.731 689.034C176.819 689.034 176.905 689.014 176.984 688.975L178.47 688.146C178.617 688.066 178.633 687.939 178.47 687.875L176.918 686.998C176.84 686.959 176.753 686.938 176.665 686.938C176.577 686.938 176.49 686.959 176.412 686.998L174.926 687.827C174.763 687.891 174.763 688.018 174.844 688.098Z" fill="#3A2C6D"/>
<path d="M172.655 686.855L174.289 687.731C174.364 687.77 174.448 687.791 174.534 687.791C174.619 687.791 174.703 687.77 174.779 687.731L176.265 686.886C176.412 686.807 176.428 686.679 176.265 686.616L174.632 685.739C174.556 685.7 174.472 685.679 174.387 685.679C174.301 685.679 174.217 685.7 174.142 685.739L172.655 686.584C172.541 686.663 172.525 686.791 172.655 686.855Z" fill="#3A2C6D"/>
<path d="M170.451 685.611L172.084 686.488C172.163 686.527 172.249 686.548 172.337 686.548C172.425 686.548 172.512 686.527 172.59 686.488L174.06 685.659C174.207 685.563 174.224 685.452 174.06 685.372L172.427 684.496C172.351 684.46 172.267 684.442 172.182 684.442C172.097 684.442 172.014 684.46 171.937 684.496L170.451 685.34C170.337 685.42 170.32 685.548 170.451 685.611Z" fill="#3A2C6D"/>
<path d="M196.828 700.483L200.095 702.3C200.171 702.336 200.255 702.354 200.34 702.354C200.425 702.354 200.508 702.336 200.585 702.3L202.071 701.472C202.218 701.392 202.234 701.264 202.071 701.185L198.805 699.384C198.726 699.344 198.639 699.324 198.551 699.324C198.463 699.324 198.377 699.344 198.298 699.384L196.828 700.212C196.73 700.292 196.714 700.404 196.828 700.483Z" fill="#3A2C6D"/>
<path d="M193.595 701.057L195.228 701.934C195.303 701.973 195.388 701.993 195.473 701.993C195.558 701.993 195.643 701.973 195.718 701.934L197.204 701.089C197.351 701.009 197.368 700.882 197.204 700.818L195.653 699.941C195.576 699.906 195.492 699.888 195.408 699.888C195.323 699.888 195.239 699.906 195.163 699.941L193.676 700.786C193.48 700.866 193.464 700.993 193.595 701.057Z" fill="#3A2C6D"/>
<path d="M191.389 699.766L193.023 700.643C193.098 700.682 193.182 700.702 193.268 700.702C193.353 700.702 193.437 700.682 193.513 700.643L194.999 699.814C195.146 699.734 195.162 699.607 194.999 699.527L193.366 698.65C193.287 698.611 193.2 698.591 193.112 698.591C193.024 698.591 192.938 698.611 192.859 698.65L191.389 699.479C191.291 699.623 191.275 699.766 191.389 699.766Z" fill="#3A2C6D"/>
<path d="M189.201 698.586L190.834 699.463C190.91 699.502 190.994 699.523 191.079 699.523C191.165 699.523 191.249 699.502 191.324 699.463L192.81 698.634C192.957 698.634 192.974 698.427 192.81 698.363L191.177 697.487C191.102 697.448 191.018 697.427 190.932 697.427C190.847 697.427 190.763 697.448 190.687 697.487L189.201 698.315C189.087 698.379 189.07 698.507 189.201 698.586Z" fill="#3A2C6D"/>
<path d="M186.996 697.343L188.629 698.22C188.707 698.259 188.794 698.279 188.882 698.279C188.97 698.279 189.057 698.259 189.135 698.22L190.622 697.375C190.752 697.295 190.769 697.168 190.622 697.104L188.988 696.227C188.91 696.188 188.823 696.168 188.735 696.168C188.647 696.168 188.56 696.188 188.482 696.227L186.996 697.072C186.881 697.152 186.865 697.279 186.996 697.343Z" fill="#3A2C6D"/>
<path d="M184.807 696.1L186.359 696.977C186.434 697.016 186.519 697.036 186.604 697.036C186.689 697.036 186.773 697.016 186.849 696.977L188.335 696.148C188.482 696.052 188.499 695.94 188.335 695.861L186.702 694.984C186.625 694.949 186.542 694.93 186.457 694.93C186.372 694.93 186.289 694.949 186.212 694.984L184.726 695.829C184.693 695.909 184.677 696.036 184.807 696.1Z" fill="#3A2C6D"/>
<path d="M182.602 694.872L184.236 695.749C184.314 695.788 184.401 695.809 184.489 695.809C184.577 695.809 184.663 695.788 184.742 695.749L186.212 694.92C186.359 694.84 186.375 694.713 186.212 694.633L184.579 693.757C184.502 693.722 184.418 693.704 184.334 693.704C184.249 693.704 184.165 693.722 184.089 693.757L182.602 694.585C182.488 694.665 182.472 694.793 182.602 694.872Z" fill="#3A2C6D"/>
<path d="M180.398 693.629L182.031 694.506C182.107 694.541 182.191 694.56 182.276 694.56C182.361 694.56 182.444 694.541 182.521 694.506L184.007 693.661C184.154 693.581 184.171 693.454 184.007 693.39L182.374 692.513C182.296 692.474 182.209 692.454 182.121 692.454C182.033 692.454 181.946 692.474 181.868 692.513L180.398 693.342C180.3 693.39 180.283 693.549 180.398 693.629Z" fill="#3A2C6D"/>
<path d="M178.209 692.386L179.842 693.262C179.918 693.302 180.002 693.322 180.087 693.322C180.173 693.322 180.257 693.302 180.332 693.262L181.819 692.434C181.966 692.338 181.982 692.226 181.819 692.147L180.185 691.27C180.109 691.235 180.025 691.216 179.94 691.216C179.856 691.216 179.772 691.235 179.695 691.27L178.209 692.115C178.029 692.194 178.029 692.322 178.209 692.386Z" fill="#3A2C6D"/>
<path d="M176.004 691.158L177.555 692.035C177.635 692.07 177.721 692.088 177.809 692.088C177.896 692.088 177.982 692.07 178.062 692.035L179.548 691.206C179.695 691.127 179.711 690.999 179.548 690.919L177.915 690.043C177.836 690.003 177.75 689.983 177.662 689.983C177.574 689.983 177.487 690.003 177.408 690.043L175.922 690.872C175.906 690.951 175.89 691.079 176.004 691.158Z" fill="#3A2C6D"/>
<path d="M173.815 689.915L175.449 690.792C175.525 690.827 175.609 690.846 175.694 690.846C175.778 690.846 175.862 690.827 175.939 690.792L177.425 689.947C177.572 689.867 177.588 689.74 177.425 689.676L175.873 688.799C175.798 688.76 175.714 688.74 175.628 688.74C175.543 688.74 175.459 688.76 175.383 688.799L173.897 689.628C173.701 689.724 173.685 689.835 173.815 689.915Z" fill="#3A2C6D"/>
<path d="M171.61 688.608L173.243 689.485C173.322 689.524 173.409 689.544 173.497 689.544C173.585 689.544 173.671 689.524 173.75 689.485L175.22 688.64C175.367 688.56 175.383 688.433 175.22 688.369L173.586 687.492C173.51 687.457 173.426 687.438 173.341 687.438C173.257 687.438 173.173 687.457 173.096 687.492L171.61 688.337C171.496 688.48 171.496 688.608 171.61 688.608Z" fill="#3A2C6D"/>
<path d="M166.694 685.898L170.973 688.305C171.049 688.344 171.133 688.365 171.218 688.365C171.304 688.365 171.388 688.344 171.463 688.305L172.95 687.476C173.097 687.476 173.113 687.269 172.95 687.189L168.67 684.782C168.594 684.747 168.51 684.729 168.425 684.729C168.341 684.729 168.257 684.747 168.18 684.782L166.694 685.627C166.596 685.707 166.596 685.834 166.694 685.898Z" fill="#3A2C6D"/>
<path d="M195.799 702.3L197.906 703.496C197.986 703.532 198.072 703.55 198.16 703.55C198.247 703.55 198.333 703.532 198.413 703.496L199.883 702.651C200.03 702.571 200.046 702.444 199.883 702.38L197.759 701.185C197.684 701.146 197.6 701.125 197.514 701.125C197.429 701.125 197.345 701.146 197.269 701.185L195.783 702.014C195.685 702.109 195.669 702.221 195.799 702.3Z" fill="#3A2C6D"/>
<path d="M211.904 698.028L176.625 678.151V651.053L176.902 650.448L177.196 650.304C177.568 650.1 177.987 649.993 178.413 649.993C178.839 649.993 179.258 650.1 179.63 650.304L211.904 668.508C212.276 668.714 212.586 669.013 212.801 669.374C213.016 669.735 213.129 670.146 213.129 670.564V695.956C212.9 697.295 212.655 697.614 211.904 698.028Z" fill="#E5E5E5"/>
<path d="M208.67 671.791L176.625 651.946V651.037L176.902 650.432L177.196 650.288C177.568 650.084 177.987 649.977 178.413 649.977C178.839 649.977 179.258 650.084 179.63 650.288L211.904 668.492C212.299 668.706 212.622 669.027 212.835 669.416L208.67 671.791Z" fill="#E5E5E5"/>
<path d="M177.441 650.464L211.316 669.592C211.495 669.691 211.644 669.834 211.747 670.008C211.85 670.182 211.904 670.379 211.904 670.58V698.06L176.625 678.183V650.926C176.623 650.832 176.646 650.739 176.694 650.657C176.741 650.575 176.81 650.507 176.893 650.459C176.976 650.412 177.071 650.388 177.168 650.388C177.264 650.389 177.359 650.415 177.441 650.464Z" fill="#DCEEFF"/>
<path d="M177.441 650.464L211.316 669.592C211.495 669.691 211.644 669.834 211.747 670.008C211.85 670.182 211.904 670.379 211.904 670.58V698.06L176.625 678.183V650.926C176.623 650.832 176.646 650.739 176.694 650.657C176.741 650.575 176.81 650.507 176.893 650.459C176.976 650.412 177.071 650.388 177.168 650.388C177.264 650.389 177.359 650.415 177.441 650.464Z" fill="#F4F4F4"/>
<path d="M211.904 698.029V697.056L176.625 677.163V678.151L211.904 698.029Z" fill="#DBDBDB"/>
<path d="M177.539 676.717V651.882L177.98 652.121V676.494L177.539 676.717Z" fill="#1E3779"/>
<path d="M177.98 652.121V676.494L210.777 694.936V670.612L177.98 652.121Z" fill="#3A2C6D"/>
<path d="M177.539 676.717L210.777 695.43V694.936L177.98 676.494L177.539 676.717Z" fill="#031F60"/>
<path d="M139.549 646.16C138.716 648.2 140.855 650.687 146.539 652.44C152.223 654.194 152.746 651.946 152.746 651.946C156.533 653.596 160.224 655.448 163.803 657.493C167.217 659.836 168.703 666.563 169.177 677.944C169.716 691.111 169.765 710.653 169.307 714.016C169.307 714.016 162.937 720.233 154.771 719.579C146.604 718.926 132.868 711.864 129.537 706.429C129.537 694.872 131.006 692.991 129.096 686.344C124.702 671.122 122.399 664.889 124.522 654.767C126.286 646.431 128.753 645.395 132.117 645.474C134.605 645.573 137.086 645.802 139.549 646.16Z" fill="#F4F4F4"/>
<path d="M182.618 692.067C175.906 693.661 174.338 689.596 173.456 686.169C171.332 677.912 170.189 670.436 168.556 665.75C166.677 660.219 164.717 659.374 162.023 658.258C158.756 656.999 155.996 659.661 157.123 666.706C158.44 674.88 160.495 682.924 163.264 690.744C164.097 693.326 165.975 697.901 168.768 700.101C172.231 702.826 177.425 702.715 185.313 700.802C188.58 699.989 192.353 698.029 198.706 695.127C200.34 694.362 201.744 693.836 205.011 692.354C208.305 690.929 211.192 688.74 213.422 685.978C215.137 683.555 215.366 682.423 215.056 681.865C214.745 681.307 213.847 681.323 212.932 682.344C211.59 684.078 209.928 685.554 208.032 686.695C208.032 686.695 210.156 684.575 211.299 683.188C212.336 681.963 213.188 680.6 213.831 679.14C214.451 677.721 213.194 675.808 212.197 676.812C211.201 677.817 210.793 678.853 209.061 680.877C208.153 681.961 207.111 682.93 205.958 683.762C207.034 682.342 207.99 680.839 208.816 679.267C209.563 678.046 209.927 676.639 209.862 675.218C209.862 674.469 208.751 673.624 207.738 674.995C206.769 676.922 205.562 678.726 204.145 680.367C202.61 681.961 201.32 682.806 201.271 682.375C201.222 681.945 202.202 681.1 202.741 679.299C203.28 677.498 202.741 675.569 201.728 675.362C200.715 675.155 200.895 675.218 200.095 676.956C198.964 678.691 197.949 680.496 197.057 682.36C196.534 684.096 195.587 685.683 194.296 686.982C192.631 688.608 188.988 690.505 182.618 692.067Z" fill="#FFCEA9"/>
<path d="M159.524 657.127C163.999 656.489 167.151 658.45 169.127 665.097C171.104 671.743 172.492 677.147 172.492 677.147C170.703 679.61 168.024 681.319 164.995 681.929C159.638 683.188 157.711 680.702 157.711 680.702C157.711 680.702 156.224 673.752 155.31 669.034C154.395 664.315 153.987 657.924 159.524 657.127Z" fill="#EDEDED"/>
<path d="M161.696 623.254C161.696 623.254 168.768 612.765 153.53 610.63C142.472 609.036 135.384 616.017 134.551 623.525C133.767 630.714 138.307 638.174 141.574 641.139C144.793 641.922 148.195 641.519 151.129 640.007C151.312 638.052 151.383 636.088 151.341 634.125C151.341 634.125 145.902 623.063 161.696 623.254Z" fill="#3A2C6D"/>
<path d="M192.386 755.97V724.473L166.759 739.074L176.624 758.999L192.386 755.97Z" fill="#C4C7D6"/>
<path d="M175.596 726.29L185.428 720.711L192.386 724.648L182.194 730.291L175.596 726.29Z" fill="#D6D8E5"/>
<path opacity="0.4" d="M51.8569 550.934L8.16626 525.924C3.26637 523.087 3.82169 518.13 9.55456 514.862L31.7674 502.11C37.5002 498.922 46.1567 498.492 51.1219 501.329L94.8779 526.339C99.7777 529.16 99.2061 534.118 93.4896 537.401L71.2768 550.153C65.4786 553.421 56.8058 553.772 51.8569 550.934Z" fill="#D6D8E5"/>
<path d="M106.164 526.275V465.815L12.707 455.406V516.249C12.7249 517.29 13.0401 518.306 13.6172 519.181C14.1943 520.057 15.0104 520.758 15.9736 521.206L59.7786 546.216C64.6785 549.053 73.4166 548.703 79.1331 545.419L101.346 532.667C104.613 530.818 106.246 528.443 106.082 526.291L106.164 526.275Z" fill="#D6D8E5"/>
<path d="M106.066 472.414V465.815H98.8797L58.9946 442.989C54.0947 440.151 45.3566 440.518 39.6401 443.786L17.4273 456.538C17.0263 456.76 16.6391 457.004 16.2676 457.271L12.707 455.406C12.707 455.406 12.707 462.372 12.707 462.611C12.7316 463.648 13.0498 464.659 13.6263 465.531C14.2028 466.403 15.0152 467.103 15.9736 467.552L59.7786 492.546C64.6785 495.383 73.4166 495.017 79.1331 491.749L101.346 478.997C104.613 477.1 106.246 474.645 106.066 472.35V472.414Z" fill="#EDF0F9"/>
<path d="M59.7785 485.373L16.0388 460.363C11.1389 457.526 11.6943 452.568 17.4271 449.301L39.6399 436.549C45.3565 433.361 54.0293 432.914 58.9945 435.752L102.75 460.762C107.65 463.599 107.079 468.556 101.346 471.824L79.133 484.576C73.4981 487.844 64.7437 488.21 59.7785 485.373Z" fill="#E2E5F2"/>
<path d="M49.9297 451.229V448.823H48.4434L47.9697 448.536C46.5083 447.798 44.8868 447.413 43.2413 447.413C41.5959 447.413 39.9744 447.798 38.513 448.536C38.2337 448.69 37.971 448.872 37.729 449.078L36.5693 448.823V451.229C36.6083 451.811 36.8102 452.372 37.1529 452.85C37.4956 453.327 37.966 453.704 38.513 453.939C39.9768 454.67 41.5973 455.05 43.2413 455.05C44.8854 455.05 46.5059 454.67 47.9697 453.939C48.5115 453.695 48.9778 453.316 49.3219 452.841C49.6659 452.365 49.8756 451.809 49.9297 451.229Z" fill="#7391E0"/>
<path d="M43.2495 452.648C46.9389 452.648 49.9297 450.935 49.9297 448.823C49.9297 446.71 46.9389 444.997 43.2495 444.997C39.5602 444.997 36.5693 446.71 36.5693 448.823C36.5693 450.935 39.5602 452.648 43.2495 452.648Z" fill="#7391E0"/>
<path d="M66.0669 460.299V457.892H64.5806L64.1233 457.606C62.6618 456.868 61.0403 456.482 59.3949 456.482C57.7494 456.482 56.1279 456.868 54.6665 457.606C54.3796 457.756 54.1111 457.938 53.8662 458.148L52.7065 457.892V460.299C52.7607 460.879 52.9703 461.435 53.3143 461.911C53.6584 462.386 54.1248 462.765 54.6665 463.009C56.1303 463.74 57.7509 464.12 59.3949 464.12C61.0389 464.12 62.6594 463.74 64.1233 463.009C64.6702 462.774 65.1406 462.397 65.4833 461.92C65.826 461.442 66.0279 460.881 66.0669 460.299Z" fill="#7391E0"/>
<path d="M59.3867 461.718C63.0761 461.718 66.0669 460.005 66.0669 457.892C66.0669 455.78 63.0761 454.067 59.3867 454.067C55.6974 454.067 52.7065 455.78 52.7065 457.892C52.7065 460.005 55.6974 461.718 59.3867 461.718Z" fill="#7391E0"/>
<path d="M82.2365 469.991V467.584H80.7339L80.2766 467.297C78.8152 466.559 77.1937 466.174 75.5482 466.174C73.9027 466.174 72.2813 466.559 70.8198 467.297C70.5365 467.453 70.2686 467.635 70.0195 467.839L68.8599 467.584V469.991C68.9107 470.572 69.119 471.129 69.4635 471.605C69.8079 472.081 70.2761 472.459 70.8198 472.701C72.2813 473.439 73.9027 473.824 75.5482 473.824C77.1937 473.824 78.8152 473.439 80.2766 472.701C80.8203 472.459 81.2885 472.081 81.6329 471.605C81.9774 471.129 82.1857 470.572 82.2365 469.991Z" fill="#7391E0"/>
<path d="M75.54 471.41C79.2294 471.41 82.2202 469.697 82.2202 467.584C82.2202 465.471 79.2294 463.758 75.54 463.758C71.8507 463.758 68.8599 465.471 68.8599 467.584C68.8599 469.697 71.8507 471.41 75.54 471.41Z" fill="#7391E0"/>
</g>
<defs>
<clipPath id="clip0_38_639">
<rect width="748" height="797" fill="white"/>
</clipPath>
</defs>
</svg>
