<svg width="459" height="500" viewBox="0 0 459 500" fill="none" xmlns="http://www.w3.org/2000/svg">
<g clip-path="url(#clip0_17_4204)">
<path opacity="0.4" d="M418.32 237.95C440.737 237.95 458.91 227.456 458.91 214.51C458.91 201.564 440.737 191.07 418.32 191.07C395.903 191.07 377.73 201.564 377.73 214.51C377.73 227.456 395.903 237.95 418.32 237.95Z" fill="#D6D8E5"/>
<path d="M416.57 2.47001C418.16 -0.0799931 430.26 -1.74999 434.24 8.47001C435.75 12.36 435.51 22.3 436.78 28.54C438.05 34.78 441.01 38.32 442.08 43.39C443.15 48.46 441.41 56.94 429.2 58.39C416.99 59.84 407.61 55.61 404.73 51.72C401.85 47.83 401.73 39.56 404.73 35.11C407.73 30.66 409.99 27.11 409.92 21.27L416.57 2.47001Z" fill="#3A2C6D"/>
<path d="M402.08 45.37C402.08 45.37 399.21 65.61 404.63 80C410.05 94.39 408.54 76.29 408.54 76.29L407.24 72C407.24 72 406.15 55.45 406.6 51.4C407.05 47.35 406.95 43.86 407.24 43.53C407.53 43.2 406.17 42.53 405.59 42.48C405.01 42.43 402.08 45.37 402.08 45.37Z" fill="#FFCEA9"/>
<path d="M424.56 0.700012C424.56 0.700012 415.45 -1.92999 409.93 3.00001C404.88 7.50001 405.3 13.62 406.03 16.5C406.76 19.38 408.24 23.3 410.53 23.5C412.82 23.7 424.56 0.700012 424.56 0.700012Z" fill="#3A2C6D"/>
<path d="M428 25.55C428 25.55 427.41 35.7 427.59 36.45C427.77 37.2 431.59 37.92 432.65 38.8C433.71 39.68 427.16 50 423.81 51.51C420.46 53.02 410.09 49.14 409.37 44C408.71 39.25 412.37 35.56 413.74 34.27C414.691 34.1817 415.646 34.1583 416.6 34.2L416.9 29.28C421.45 27.81 428 25.55 428 25.55Z" fill="#FFCEA9"/>
<path d="M429.44 37.44C432.29 37.87 435.55 39.44 436 40.96C436.52 42.78 437.65 51.37 435.18 57.91C432.71 64.45 431.05 68.6 429.63 71.42C429.63 71.42 417.28 76.71 407.33 70.54C407.33 70.54 406.65 63.54 406.6 59.79C397.42 51.79 405.27 41.89 413.05 34.21C413.982 34.1302 414.918 34.1302 415.85 34.21C415.85 34.21 408.91 42.42 413.74 47.09C424.08 43.93 426.13 39.29 429.44 37.44Z" fill="#F4F4F4"/>
<path d="M409.08 13C410.08 6.48001 414.81 1.55001 421.54 2.00001C424.221 2.17544 426.781 3.1823 428.863 4.88046C430.945 6.57862 432.445 8.88361 433.156 11.4746C433.867 14.0656 433.752 16.8137 432.828 19.3365C431.904 21.8593 430.216 24.0312 428 25.55C427.776 26.5348 427.44 27.491 427 28.4C424.61 31.17 418.28 32.94 416.19 32.96C414.39 32.96 412.83 31.3 411.14 28.49C407.62 22.66 408.51 16.19 409.08 13Z" fill="#FFCEA9"/>
<path d="M423.62 2.00001C428.34 2.92001 432.23 4.25001 433.51 8.88001C434.39 12.07 435.51 18.16 434.44 20.72L433.76 22.57L428 25.55C428 25.55 425.34 23.33 426.17 16.81C426.14 15.928 425.863 15.0721 425.37 14.34C425.008 13.7156 424.738 13.0419 424.57 12.34C423.902 10.5774 422.575 9.14326 420.87 8.34001C416.66 6.00001 410.43 8.00001 409.56 8.90001C410.752 6.30795 412.802 4.20625 415.363 2.94931C417.924 1.69237 420.84 1.3571 423.62 2.00001Z" fill="#3A2C6D"/>
<path d="M436.33 84.88C437.39 78.27 439.33 73.98 438.45 70.35C436.42 62.988 433.743 55.82 430.45 48.93C428.36 44.81 429 41.93 431.17 40.33C433.6 38.51 435.92 39.33 438.11 43.86C440.87 49.59 443.98 55.47 445.49 64C446.23 68.14 446.61 72.16 445.28 80.66C444.35 86.6 442.46 89.94 440.22 95.52C439.57 97.05 435.43 90.49 436.33 84.88Z" fill="#FFCEA9"/>
<path d="M432.2 208.18C429.81 210.12 426.1 208.78 425.92 208.96C423.49 211.39 419.87 213.51 417.17 215.64C415.68 216.81 413.36 218.38 413.78 220.64C414.53 224.64 420.97 223.42 423.4 222.19C425.83 220.96 427.82 218.92 430.12 217.49C431.76 216.49 433.37 215.95 433.63 213.87C433.78 212.61 432.62 208.13 432.2 208.18Z" fill="#38226D"/>
<path d="M433.6 213C433.28 215 431.69 215.53 430.06 216.54C427.72 217.99 425.66 220.09 423.24 221.32C420.99 222.45 415.39 223.58 413.81 220.71C414.67 224.59 421 223.37 423.4 222.15C425.8 220.93 427.82 218.88 430.12 217.45C431.76 216.45 433.37 215.91 433.63 213.83C433.648 213.553 433.638 213.275 433.6 213Z" fill="#9C73FF"/>
<path d="M415.44 204.83C413.26 206.61 409.95 205.61 409.79 205.78C407.57 208.01 404.27 209.92 401.79 211.87C400.42 212.94 398.3 214.38 398.68 216.44C399.37 220.12 405.27 218.99 407.5 217.86C409.73 216.73 411.5 214.86 413.65 213.56C415.15 212.63 416.65 212.14 416.86 210.24C417 209.1 415.83 204.79 415.44 204.83Z" fill="#38226D"/>
<path d="M416.84 209.48C416.55 211.3 415.09 211.8 413.6 212.72C411.46 214.05 409.6 215.97 407.35 217.1C405.29 218.1 400.16 219.17 398.72 216.54C399.51 220.09 405.3 218.98 407.51 217.86C409.72 216.74 411.51 214.86 413.66 213.56C415.16 212.63 416.66 212.14 416.87 210.24C416.888 209.986 416.878 209.731 416.84 209.48Z" fill="#9C73FF"/>
<path d="M402.57 93.73C403.62 85.5 406.66 73.53 406.66 73.53C409.529 74.8774 412.634 75.6487 415.8 75.8C421.11 76.07 429.61 74.45 429.61 74.45C431.098 77.0514 432.724 79.5717 434.48 82C436.86 85.3 441.48 92.52 440.36 105.14C439.63 113.38 435.01 148.4 435.01 148.4C436.806 154.29 437.762 160.403 437.85 166.56C437.8 171.65 436.46 180.31 434.96 188.31L432.2 208.19C432.2 208.19 428.53 210.84 425.92 208.97L426.25 189.51C425.93 184.76 425.46 177.73 425.15 173.25C424.66 165.94 423.35 154.34 422.97 151.45C422.59 148.56 421.67 143.45 421.23 137.82C420.79 132.19 418.65 103.32 418.65 103.32L418.35 108.72C418.35 108.72 418.07 117.48 416.81 128.3C415.55 139.12 415.11 143.91 415.11 143.91C415.11 143.91 417.29 147.91 417.57 150.91C417.79 153.25 420.47 171.73 418.87 181.14L415.59 205C414.773 205.563 413.834 205.925 412.85 206.055C411.866 206.186 410.866 206.081 409.93 205.75L408 181.66C406.71 172.49 404 153.06 403.56 150.53C403 147.2 402.56 145.53 401.92 135.11C401.28 124.69 401.51 102 402.57 93.73Z" fill="#FFCEA9"/>
<path d="M429.63 71.42L436.72 85.66C436.72 85.66 447.54 101.5 436.33 142.22L438.43 154.78C438.43 154.78 417.21 168.4 403 154.78C403 154.78 398.08 117.15 400.7 99.78C402.155 89.8004 404.365 79.9455 407.31 70.3C407.31 70.3 410.79 74.15 428.69 71.61" fill="#7391E0"/>
<path d="M442.35 51.85C442.35 51.85 437.42 56.75 431.58 56.15L428.78 46.6C428.78 46.6 426.95 41.6 431.21 39.42C435.47 37.24 439.9 42.07 442.35 51.85Z" fill="#EDEDED"/>
<path d="M413.05 34.21C413.05 34.21 407.41 32.49 401.43 45L403.67 46.35C403.67 46.35 409.56 37.42 413.05 34.21Z" fill="#EDEDED"/>
<path opacity="0.4" d="M40.59 333.28C63.0072 333.28 81.18 322.786 81.18 309.84C81.18 296.894 63.0072 286.4 40.59 286.4C18.1728 286.4 0 296.894 0 309.84C0 322.786 18.1728 333.28 40.59 333.28Z" fill="#D6D8E5"/>
<path d="M19.7699 302.65C22.6699 305.01 26.9599 302.85 27.1699 303.07C30.5842 306.233 34.1625 309.213 37.8899 312C39.6999 313.42 42.5299 315.33 42.0199 318.06C41.0999 322.96 33.2699 321.45 30.3099 319.96C27.3499 318.47 24.9399 315.96 22.1399 314.24C20.1399 313 18.1399 312.36 17.8699 309.84C17.6799 308.32 19.2499 302.59 19.7699 302.65Z" fill="#38226D"/>
<path d="M17.9099 308.82C18.2899 311.24 20.2299 311.9 22.2099 313.13C25.0599 314.9 27.5599 317.44 30.5099 318.94C33.2499 320.32 40.0599 321.7 41.9799 318.2C40.9799 322.92 33.2399 321.44 30.3099 319.96C27.3799 318.48 24.9399 315.96 22.1399 314.24C20.1399 313 18.1399 312.36 17.8699 309.84C17.846 309.5 17.8594 309.158 17.9099 308.82Z" fill="#9C73FF"/>
<path d="M45.0002 293.28C47.9002 295.64 53.0002 293.06 53.2002 293.28C56.2246 296.342 59.4233 299.227 62.7802 301.92C64.5902 303.35 67.4102 305.25 66.9002 307.99C65.9902 312.89 58.1502 311.38 55.2002 309.88C52.2502 308.38 49.8302 305.88 47.0302 304.17C45.0302 302.93 43.0302 302.28 42.7602 299.76C42.5502 298.24 44.4602 293.22 45.0002 293.28Z" fill="#38226D"/>
<path d="M42.8198 299.09C43.2098 301.51 45.1498 302.17 47.1298 303.4C49.9698 305.17 52.4798 307.72 55.4298 309.21C58.1598 310.6 64.9698 311.97 66.8898 308.47C65.8898 313.19 58.1498 311.71 55.2298 310.23C52.3098 308.75 49.8598 306.23 47.0598 304.51C45.0598 303.27 43.0598 302.63 42.7898 300.11C42.7669 299.77 42.7769 299.428 42.8198 299.09Z" fill="#9C73FF"/>
<path d="M19.5999 195.41C19.7399 199.81 21.1099 218.88 21.7199 228.98C22.3299 239.08 22.4699 251.46 22.4699 251.46C22.4699 251.46 20.7299 258.82 19.5999 267.46C18.4699 276.1 19.5999 303.4 19.5999 303.4C20.7104 304.111 22.0013 304.489 23.3199 304.489C24.6384 304.489 25.9294 304.111 27.0399 303.4C27.0399 303.4 31.6899 281.55 33.8399 271.71C35.9899 261.87 36.3699 256.2 37.4899 250.1C38.8399 242.71 41.7499 208.28 41.7499 208.28L42.9199 208.34L45.9999 247.23C45.032 250.094 44.3618 253.049 43.9999 256.05C43.1599 262.39 44.8999 294.25 44.8999 294.25C46.1364 294.931 47.5357 295.26 48.9459 295.202C50.3562 295.143 51.7236 294.7 52.8999 293.92C52.8999 293.92 60.6699 251.72 60.6699 245.3C60.6699 241.05 59.9399 185.05 59.9399 185.05L19.5999 195.41Z" fill="#7391E0"/>
<path d="M30.13 110.5C30.13 110.5 30.62 120.08 30.41 120.93C30.2 121.78 26.01 124.59 24.79 125.59C23.57 126.59 31.42 134.33 35.23 136.08C39.04 137.83 51.12 133.22 51.34 127.29C51.56 121.36 49.27 116.38 47.42 116.11C45.57 115.84 30.13 110.5 30.13 110.5Z" fill="#FFCEA9"/>
<path d="M56.3599 128.28C56.9199 124.05 54.1399 120.04 56.8399 116.67C66.2999 125.95 65.0899 150.47 67.2399 166.17C74.2399 173.51 88.3699 180.74 92.3399 182.53C93.0599 182.86 93.6899 183.21 93.5499 183.99C92.9799 187.05 92.0899 188.21 90.2599 191.17C80.9299 187.17 74.1899 184.83 62.5299 173.75C61.4106 172.55 60.4062 171.248 59.5299 169.86C56.2399 159.86 55.3999 135.57 56.3599 128.28Z" fill="#FFCEA9"/>
<path d="M29.0599 122.59C29.0599 122.59 36.0599 132.94 45.7099 133.92C48.7699 130.92 49.0499 120.18 44.8099 116.75C44.8099 116.75 48.6999 113.61 51.3599 114.22C54.2253 115.949 56.3594 118.666 57.3599 121.86C59.8181 128.975 60.9732 136.475 60.7699 144C60.6099 154.16 60.7699 185.21 60.7699 185.21C60.7699 185.21 59.4099 191.78 50.6399 196.66C41.8699 201.54 35.3499 202.03 29.3999 200.66C24.4899 199.51 20.3999 197.79 18.7499 194.22C19.1899 187.1 22.3699 168.51 21.1799 159.56C19.9899 150.61 18.0999 143.91 17.6099 136.67C17.1199 129.43 18.5599 129.58 22.1899 127C24.3694 125.365 26.6655 123.891 29.0599 122.59Z" fill="#F4F4F4"/>
<path d="M51.8101 96.23C50.6701 88.79 45.3101 83.16 37.6401 83.58C34.5558 83.7398 31.5995 84.8643 29.1888 86.7949C26.7781 88.7255 25.0347 91.3645 24.2047 94.3394C23.3748 97.3143 23.5003 100.475 24.5635 103.374C25.6267 106.274 27.5739 108.767 30.1301 110.5C30.3969 111.627 30.7963 112.718 31.3201 113.75C34.0301 116.93 42.2301 118.88 44.5901 118.55C47.5901 118.11 49.2501 116.85 50.6901 113.55C53.2401 107.71 52.4401 99.9 51.8101 96.23Z" fill="#FFCEA9"/>
<path d="M30.1302 110.5L30.8302 104.02C30.8302 104.02 25.5302 90.29 38.0602 92.93C46.3202 94.67 48.4002 95.42 50.9102 89.88C53.4202 84.34 44.5602 79.34 34.0002 80.73C30.3776 81.1173 27.0322 82.8496 24.6251 85.5844C22.218 88.3192 20.9245 91.8576 21.0002 95.5C21.2702 99.58 22.3602 107.84 30.1302 110.5Z" fill="#3A2C6D"/>
<path d="M15.4698 132.41C19.0998 131.41 16.3298 132.23 19.0998 131.41C28.5498 140.68 27.3698 156.57 29.5198 172.27C34.7298 180.9 54.1098 192.6 54.1098 192.6C54.3498 194.26 53.7598 194.76 51.6698 198.13C42.3398 194.13 34.5198 190.63 22.8598 179.55C22.3998 179.11 21.7298 179 21.5298 178.4C18.1998 168.36 14.4998 139.71 15.4698 132.41Z" fill="#FFCEA9"/>
<path d="M101.66 151.76L87.5799 199.9L56.6899 212.24L67.9599 165.34L101.66 151.76Z" fill="#F4F4F4"/>
<path d="M49.2298 192.9C49.6898 191.26 50.8798 191.66 52.2298 192.08C53.6795 192.666 55.2719 192.802 56.7998 192.47C58.0698 192.08 58.9898 190.98 60.0798 190.26C60.7045 189.89 61.4139 189.687 62.1398 189.67C62.0698 190.09 61.4298 192.54 61.4298 192.54C61.4298 192.54 68.1998 192.61 68.8898 192.46C69.1277 192.402 69.3781 192.421 69.604 192.516C69.8298 192.611 70.019 192.776 70.1435 192.987C70.2681 193.198 70.3214 193.444 70.2955 193.688C70.2696 193.931 70.1659 194.16 69.9998 194.34L70.4598 194.27C71.8498 193.96 72.4598 196.09 71.0498 196.4C70.6698 196.48 70.2998 196.52 69.9198 196.57C70.8198 196.92 71.0498 198.41 69.9198 198.63C69.8098 198.63 69.6898 198.63 69.5698 198.69C69.4149 198.754 69.2465 198.778 69.0798 198.76C69.0066 198.765 68.9331 198.765 68.8598 198.76C68.8915 198.92 68.8905 199.086 68.857 199.246C68.8236 199.406 68.7582 199.558 68.6649 199.692C68.5717 199.826 68.4523 199.94 68.314 200.028C68.1757 200.115 68.0212 200.174 67.8598 200.2C64.5498 200.62 59.6798 201.94 56.6998 199.2C54.6238 198.996 52.5962 198.449 50.6998 197.58C48.7298 196.72 48.6798 194.87 49.2298 192.9Z" fill="#FFCEA9"/>
<path d="M83.0001 189C83.1601 189 83.3101 189 83.4601 189C83.2676 188.859 83.1241 188.662 83.0498 188.435C82.9755 188.208 82.9741 187.964 83.0458 187.737C83.1176 187.509 83.2589 187.31 83.4498 187.167C83.6407 187.024 83.8717 186.945 84.1101 186.94C84.8201 186.94 91.7901 185.49 91.7901 185.49L92.6201 182.62C92.6201 182.46 93.8301 183.2 93.8701 183.23C94.4603 183.614 94.9558 184.126 95.3195 184.729C95.6832 185.332 95.9057 186.009 95.9701 186.71C96.0317 188.663 95.3243 190.563 94.0001 192C92.7432 193.25 91.0523 193.966 89.2801 194C88.4401 194.06 87.6201 194.1 86.8901 194.16C86.7258 194.171 86.561 194.148 86.4056 194.094C86.2502 194.039 86.1075 193.954 85.9861 193.843C85.8646 193.731 85.7669 193.597 85.6988 193.447C85.6308 193.297 85.5938 193.135 85.5901 192.97H85.3801C85.2161 193.012 85.0441 193.012 84.8801 192.97H84.5201C83.3401 192.97 83.2501 191.5 84.0501 190.97C83.6701 190.97 83.2901 191.04 82.9101 191.04C81.4901 191.16 81.6101 189 83.0001 189Z" fill="#FFCEA9"/>
<path d="M60.2998 134.56C60.2998 134.56 63.8698 134.38 65.2998 132.3C65.0298 128.74 60.4798 115.23 51.2998 114.22C53.7968 115.966 55.7764 118.353 57.0298 121.13C58.7598 125.2 60.2998 134.56 60.2998 134.56Z" fill="#EDEDED"/>
<path d="M13.82 152.41C13.82 152.41 22.93 155.55 29.35 150.27C30.05 149.06 25.63 133.55 25.63 133.55C25.63 133.55 21.81 125.62 15.82 128.77C9.82999 131.92 13.82 152.41 13.82 152.41Z" fill="#EDEDED"/>
<path opacity="0.2" d="M393.6 354.08L203.6 464.45L91.8701 398.8L281.87 288.42L393.6 354.08Z" fill="#D6D8E5"/>
<path d="M103.32 296.4V398.68C103.35 399.001 103.465 399.308 103.653 399.57C103.841 399.831 104.096 400.039 104.39 400.17C105.19 400.579 106.076 400.792 106.975 400.792C107.874 400.792 108.76 400.579 109.56 400.17C109.854 400.039 110.108 399.831 110.296 399.57C110.484 399.308 110.599 399.001 110.63 398.68V296.4H103.32Z" fill="#C1C4D3"/>
<path d="M202.09 336.2V454.92C202.107 455.226 202.202 455.523 202.364 455.784C202.527 456.044 202.752 456.26 203.02 456.41C203.707 456.813 204.489 457.025 205.285 457.025C206.081 457.025 206.863 456.813 207.55 456.41C207.817 456.26 208.043 456.044 208.205 455.784C208.368 455.523 208.462 455.226 208.48 454.92V336.2H202.09Z" fill="#C1C4D3"/>
<path d="M372.87 257V353.8C372.89 354.107 372.986 354.405 373.15 354.665C373.314 354.925 373.541 355.14 373.81 355.29C374.495 355.693 375.275 355.905 376.07 355.905C376.865 355.905 377.645 355.693 378.33 355.29C378.599 355.14 378.826 354.925 378.99 354.665C379.154 354.405 379.251 354.107 379.27 353.8V257H372.87Z" fill="#C1C4D3"/>
<path d="M205.28 366.67L96.9399 304.12V296.81L205.28 359.36V366.67Z" fill="#D5D7E2"/>
<path d="M387.95 254.12L205.26 359.59L96.9199 297.04L279.6 191.56L387.95 254.12Z" fill="#E9EAF4"/>
<path d="M387.97 261.19L205.28 366.67V359.36L387.97 253.89V261.19Z" fill="#CED0DD"/>
<path opacity="0.4" d="M412.4 500C434.817 500 452.99 489.506 452.99 476.56C452.99 463.614 434.817 453.12 412.4 453.12C389.983 453.12 371.81 463.614 371.81 476.56C371.81 489.506 389.983 500 412.4 500Z" fill="#D6D8E5"/>
<path d="M445.29 298.42C445.76 302.42 450.58 319.92 449.55 325.9C448.52 331.88 432.02 341.9 432.02 341.9L429.74 331.67L438.87 322.72L436.4 305.72L445.29 298.42Z" fill="#FFCEA9"/>
<path d="M432.54 281.21C434.145 280.469 435.966 280.343 437.658 280.855C439.35 281.368 440.796 282.483 441.72 283.99C444.14 287.99 446.66 301.79 446.89 304.15C446.89 304.15 443.49 308.85 438.38 308.06L432.54 281.21Z" fill="#EDEDED"/>
<path d="M413.7 475.85C410.104 476.848 406.259 476.388 403 474.57C400.43 474.64 386.48 468.67 384.58 473.68C382.92 478.08 388.96 482.15 392.19 482.93C399.24 484.64 404.46 488.15 407.29 488.75C409.4 489.19 412.13 489.48 413.81 487.83C415.85 485.84 415.67 478.48 413.7 475.85Z" fill="#38226D"/>
<path d="M407.31 487.53C404.48 486.93 399.26 483.42 392.21 481.71C389.51 481.06 384.84 478.09 384.37 474.57C383.74 478.57 389.2 482.2 392.21 482.93C399.26 484.64 404.48 488.15 407.31 488.75C409.42 489.19 412.15 489.48 413.83 487.83C414.268 487.349 414.584 486.769 414.75 486.14C412.3 488.18 409.42 488 407.31 487.53Z" fill="#9C73FF"/>
<path d="M436.33 465.69C432.743 466.685 428.907 466.221 425.66 464.4C423.09 464.48 409.13 458.5 407.24 463.52C405.57 467.92 411.62 471.98 414.85 472.76C421.85 474.47 427.11 477.99 429.94 478.58C432.05 479.03 434.78 479.32 436.47 477.66C438.48 475.67 438.31 468.31 436.33 465.69Z" fill="#38226D"/>
<path d="M429.94 477.37C427.11 476.77 421.94 473.25 414.85 471.55C412.14 470.89 407.48 467.93 407.01 464.4C406.38 468.45 411.83 472.03 414.85 472.76C421.85 474.47 427.11 477.99 429.94 478.58C432.05 479.03 434.78 479.32 436.47 477.66C436.905 477.18 437.22 476.605 437.39 475.98C434.94 478 432.05 477.81 429.94 477.37Z" fill="#9C73FF"/>
<path d="M436.61 427.77C436.008 422.585 434.93 417.467 433.39 412.48C433.39 412.48 434.39 399.29 434.83 386.79C435.38 372.59 440.3 360.1 436.42 348.79L392.63 358.53C392.63 358.53 395.28 415.11 395.86 421.96C396.194 427.293 396.862 432.6 397.86 437.85C399.86 448.85 403.1 474.96 403.1 474.96C407.73 477.65 413.81 476.16 413.81 476.16C413.81 476.16 413.48 443.16 413.18 435.16C412.81 425.5 412.52 426.24 412.52 426.24L413.97 402.16L414.92 390.16C414.92 390.16 416.13 398.95 416.92 406.8C417.6 413.64 419.26 419.8 421.1 432.58C422.7 443.63 425.3 465.84 425.3 465.84C429.93 468.53 436.22 466.3 436.22 466.3C436.22 466.3 437.86 437.36 436.61 427.77Z" fill="#7391E0"/>
<path d="M430.22 281.45C426.88 281.61 424.4 282.45 423.98 281.45C423.619 279.731 423.365 277.991 423.22 276.24C423.61 275.24 423.93 274.24 423.93 274.24C428.12 271.66 429.45 267.14 430 261.86C430.94 252.86 426.07 244.97 417.06 244.03C408.59 243.15 402.36 249.1 400.7 257.27C399.8 261.27 398.02 268.93 400.43 275.57C401.77 279.28 403.51 282.22 405.25 282.8C406.924 282.753 408.594 282.606 410.25 282.36C410.25 282.36 410.69 284.87 411 286.47C411.31 288.07 411.19 288.93 408 290.9C404.81 292.87 412.84 296.9 418.09 296.52C423.34 296.14 429.24 292.95 430.86 289.52C432.66 285.8 432.51 281.34 430.22 281.45Z" fill="#FFCEA9"/>
<path d="M425.39 282C426.31 284.3 423.97 287.12 417.7 289.09C411.43 291.06 410.88 288.52 410.88 288.52C410.88 288.52 401.69 292.71 398.7 294.79C394.94 297.42 393.28 305.03 392.77 317.87C392.18 332.72 392.13 354.76 392.63 358.57C392.63 358.57 399.63 365.57 408.63 364.83C417.63 364.09 432.75 356.14 436.42 349.99C436.32 336.99 434.8 334.84 436.91 327.34C441.73 310.16 444.28 303.13 441.91 291.71C439.98 282.3 437.26 281.13 433.55 281.22C430.818 281.333 428.094 281.593 425.39 282Z" fill="#F4F4F4"/>
<path d="M378.64 330.1C386.01 331.96 387.75 327.31 388.72 323.45C391.06 314.13 392.33 305.7 394.08 300.45C396.14 294.2 398.3 293.21 401.33 292C404.89 290.57 407.96 293.58 406.77 301.52C405.37 310.92 403.53 317.52 400.01 328.65C399.1 331.55 397.01 336.71 393.95 339.21C390.15 342.29 384.41 342.15 375.74 340C372.04 339.07 367.98 336.86 360.98 333.6C359.11 332.72 357.64 332.14 354.04 330.46C350.44 328.78 346.68 325.98 344.79 323.24C342.9 320.5 342.65 319.24 343.04 318.6C343.52 317.81 344.38 317.99 345.38 319.14C346.845 321.079 348.643 322.742 350.69 324.05C350.69 324.05 348.36 321.64 347.1 320.05C345.971 318.661 345.033 317.128 344.31 315.49C343.64 313.89 345.02 311.73 346.06 312.86C347.1 313.99 347.6 315.16 349.51 317.45C350.517 318.668 351.665 319.762 352.93 320.71C351.746 319.107 350.693 317.411 349.78 315.64C348.966 314.255 348.567 312.665 348.63 311.06C348.68 310.22 349.86 309.24 350.97 310.82C351.97 312.23 352.61 314.46 354.97 316.87C356.65 318.62 358.09 319.62 358.13 319.14C358.17 318.66 357.13 317.69 356.51 315.66C355.89 313.63 356.51 311.47 357.64 311.23C358.77 310.99 358.54 311.06 359.45 312.97C360.36 314.88 361.74 316.28 362.8 319.06C363.364 321.02 364.393 322.814 365.8 324.29C367.61 326.2 371.62 328.33 378.64 330.1Z" fill="#FFCEA9"/>
<path d="M404.07 290.68C399.14 289.95 395.66 292.17 393.48 299.68C391.3 307.19 389.78 313.27 389.78 313.27C391.731 316.086 394.687 318.047 398.04 318.75C403.93 320.18 406.04 317.36 406.04 317.36C406.04 317.36 407.68 309.54 408.7 304.21C409.72 298.88 410.16 291.58 404.07 290.68Z" fill="#EDEDED"/>
<path d="M401 256.11C401 256.11 393.22 244.27 410.09 241.86C422.25 240.12 430.09 247.94 430.97 256.42C431.83 264.52 426.84 272.94 423.24 276.28C421.48 276.9 417.7 277.28 412.73 275.01C412.532 272.803 412.455 270.586 412.5 268.37C412.5 268.37 418.4 255.9 401 256.11Z" fill="#3A2C6D"/>
<path d="M155.34 303.42C148.34 307.42 136.94 307.42 129.94 303.42C122.94 299.42 122.94 292.8 129.94 288.75C136.94 284.7 148.34 284.75 155.34 288.75C162.34 292.75 162.34 299.37 155.34 303.42ZM133.61 290.87C128.61 293.75 128.61 298.42 133.61 301.3C138.61 304.18 146.69 304.17 151.67 301.3C156.65 298.43 156.67 293.75 151.67 290.87C146.67 287.99 138.59 288 133.61 290.87Z" fill="white"/>
<path d="M155.34 303.42C148.34 307.42 136.94 307.42 129.94 303.42C122.94 299.42 122.94 292.8 129.94 288.75L133.61 290.87C128.61 293.75 128.61 298.42 133.61 301.3C138.61 304.18 146.69 304.17 151.67 301.3C156.65 298.43 156.67 293.75 151.67 290.87L155.34 288.75C162.34 292.8 162.34 299.37 155.34 303.42Z" fill="#7391E0"/>
<path d="M186 321.11C179 325.16 167.61 325.16 160.6 321.11C153.59 317.06 153.6 310.49 160.6 306.45C167.6 302.41 179 302.4 186 306.45C193 310.5 193 317.07 186 321.11ZM164.27 308.57C159.27 311.44 159.27 316.12 164.27 318.99C169.27 321.86 177.35 321.87 182.33 318.99C187.31 316.11 187.33 311.44 182.33 308.56C177.33 305.68 169.23 305.69 164.25 308.57H164.27Z" fill="white"/>
<path d="M186 321.11C179 325.16 167.61 325.16 160.6 321.11C153.59 317.06 153.6 310.49 160.6 306.45L164.27 308.57C159.27 311.44 159.27 316.12 164.27 318.99C169.27 321.86 177.35 321.87 182.33 318.99C183.955 318.181 185.218 316.794 185.87 315.1L190.98 315.63C190.065 318.016 188.288 319.972 186 321.11Z" fill="#7391E0"/>
<path d="M216.63 338.8C209.63 342.85 198.23 342.85 191.23 338.8C184.23 334.75 184.23 328.18 191.23 324.14C198.23 320.1 209.63 320.14 216.63 324.14C223.63 328.14 223.63 334.76 216.63 338.8ZM194.9 326.26C189.9 329.13 189.9 333.81 194.9 336.69C199.9 339.57 207.98 339.56 212.96 336.69C217.94 333.82 217.96 329.13 212.96 326.26C207.96 323.39 199.88 323.38 194.9 326.26Z" fill="white"/>
<path d="M199.14 341.47C196.364 341.062 193.685 340.158 191.23 338.8C184.23 334.8 184.23 328.18 191.23 324.14L194.9 326.26C189.9 329.13 189.9 333.81 194.9 336.69C196.645 337.652 198.549 338.292 200.52 338.58L199.14 341.47Z" fill="#7391E0"/>
<path d="M183.81 278.77C192.304 278.77 199.19 274.794 199.19 269.89C199.19 264.986 192.304 261.01 183.81 261.01C175.316 261.01 168.43 264.986 168.43 269.89C168.43 274.794 175.316 278.77 183.81 278.77Z" fill="#7391E0"/>
<path d="M257.13 224.29L198.44 258.18L191.64 254.55L250.34 220.66L257.13 224.29Z" fill="#7391E0"/>
<path d="M250.86 242L210.38 265.37L203.84 261.59L244.32 238.22L250.86 242Z" fill="white"/>
<path d="M215.75 297.21C224.244 297.21 231.13 293.234 231.13 288.33C231.13 283.426 224.244 279.45 215.75 279.45C207.256 279.45 200.37 283.426 200.37 288.33C200.37 293.234 207.256 297.21 215.75 297.21Z" fill="#7391E0"/>
<path d="M288.82 242.88L230.13 276.77L223.59 272.99L282.29 239.1L288.82 242.88Z" fill="#7391E0"/>
<path d="M282.81 260.44L242.33 283.81L235.79 280.03L276.27 256.66L282.81 260.44Z" fill="white"/>
<path d="M248.35 316.03C256.844 316.03 263.73 312.054 263.73 307.15C263.73 302.246 256.844 298.27 248.35 298.27C239.856 298.27 232.97 302.246 232.97 307.15C232.97 312.054 239.856 316.03 248.35 316.03Z" fill="#7391E0"/>
<path d="M321.42 261.7L262.72 295.59L256.18 291.81L314.88 257.92L321.42 261.7Z" fill="#7391E0"/>
<path d="M315.4 279.26L274.92 302.63L268.38 298.85L308.86 275.48L315.4 279.26Z" fill="white"/>
<path d="M186 265.21H184.13C183.899 265.201 183.671 265.256 183.47 265.37C183.392 265.4 183.324 265.452 183.275 265.519C183.225 265.587 183.196 265.667 183.19 265.75V271H179.13C178.899 270.991 178.671 271.046 178.47 271.16C178.392 271.19 178.324 271.242 178.275 271.309C178.225 271.377 178.196 271.457 178.19 271.54V272.62C178.196 272.703 178.225 272.783 178.275 272.851C178.324 272.918 178.392 272.97 178.47 273C178.671 273.114 178.899 273.169 179.13 273.16H186C186.231 273.169 186.459 273.114 186.66 273C186.738 272.97 186.806 272.918 186.855 272.851C186.905 272.783 186.934 272.703 186.94 272.62V265.78C186.934 265.697 186.905 265.617 186.855 265.549C186.806 265.482 186.738 265.43 186.66 265.4C186.462 265.276 186.233 265.21 186 265.21Z" fill="white"/>
<path d="M218.2 283.8H216.32C216.09 283.798 215.864 283.853 215.66 283.96C215.586 283.994 215.522 284.048 215.475 284.114C215.427 284.181 215.398 284.259 215.39 284.34V289.57H211.39C211.16 289.566 210.933 289.621 210.73 289.73C210.54 289.84 210.45 289.96 210.45 290.11V291.19C210.456 291.275 210.486 291.356 210.535 291.424C210.585 291.493 210.652 291.547 210.73 291.58C210.933 291.689 211.16 291.744 211.39 291.74H218.25C218.48 291.742 218.707 291.687 218.91 291.58C218.986 291.545 219.051 291.49 219.098 291.422C219.145 291.353 219.174 291.273 219.18 291.19V284.35C219.172 284.269 219.143 284.191 219.096 284.124C219.048 284.058 218.984 284.004 218.91 283.97C218.693 283.85 218.448 283.791 218.2 283.8Z" fill="white"/>
<path d="M250.53 302.47H248.66C248.43 302.461 248.201 302.516 248 302.63C247.81 302.74 247.72 302.86 247.72 303.01V308.23H243.66C243.43 308.221 243.201 308.276 243 308.39C242.82 308.5 242.72 308.62 242.72 308.77V309.85C242.727 309.933 242.757 310.013 242.806 310.08C242.856 310.147 242.923 310.199 243 310.23C243.201 310.344 243.43 310.399 243.66 310.39H250.52C250.751 310.399 250.979 310.344 251.18 310.23C251.258 310.2 251.326 310.148 251.375 310.081C251.425 310.013 251.454 309.933 251.46 309.85V303C251.46 302.85 251.37 302.73 251.18 302.62C250.981 302.512 250.757 302.46 250.53 302.47Z" fill="white"/>
<path d="M354.91 260.55L267.64 210.17L280.98 202.47L368.25 252.85L354.91 260.55Z" fill="white"/>
</g>
<defs>
<clipPath id="clip0_17_4204">
<rect width="458.91" height="500" fill="white"/>
</clipPath>
</defs>
</svg>
