<svg width="490" height="530" viewBox="0 0 490 530" fill="none" xmlns="http://www.w3.org/2000/svg">
<path opacity="0.15" d="M71.93 385.256C111.656 385.256 143.86 365.578 143.86 341.304C143.86 317.03 111.656 297.352 71.93 297.352C32.2042 297.352 0 317.03 0 341.304C0 365.578 32.2042 385.256 71.93 385.256Z" fill="#D6D8E5"/>
<path opacity="0.5" d="M71.1 361.116C93.2576 361.116 111.22 350.142 111.22 336.605C111.22 323.069 93.2576 312.095 71.1 312.095C48.9423 312.095 30.98 323.069 30.98 336.605C30.98 350.142 48.9423 361.116 71.1 361.116Z" fill="#EDEFF9"/>
<path d="M70.7203 334.901C77.0384 334.901 82.1603 331.769 82.1603 327.906C82.1603 324.042 77.0384 320.91 70.7203 320.91C64.4021 320.91 59.2803 324.042 59.2803 327.906C59.2803 331.769 64.4021 334.901 70.7203 334.901Z" fill="#EDEFF9"/>
<path d="M82.1001 235.166H60.1001V326.668H82.1001V235.166Z" fill="#EDEFF9"/>
<path d="M59.0498 234.129C59.0498 234.129 59.6498 252.946 72.2998 286.695C72.2998 286.695 84.0798 259.518 85.2998 233.557C86.5198 207.597 59.0498 234.129 59.0498 234.129Z" fill="#FFBC00"/>
<path d="M43.6001 163.285L14.3301 193.426L10.8501 232.785L46.2501 214L52.6901 165.994L43.6001 163.285Z" fill="#7391E0"/>
<path d="M101 163.285L130.26 193.426L133.75 232.785L98.2201 212.698L91.9102 165.994L101 163.285Z" fill="#7391E0"/>
<path d="M71.9299 238.88C79.9656 238.88 86.4799 234.9 86.4799 229.991C86.4799 225.081 79.9656 221.101 71.9299 221.101C63.8941 221.101 57.3799 225.081 57.3799 229.991C57.3799 234.9 63.8941 238.88 71.9299 238.88Z" fill="#424956"/>
<path d="M49.8701 221.101V213.1H93.9401V221.397L49.8701 221.101Z" fill="#494949"/>
<path d="M71.9301 234.573C84.1135 234.573 93.9901 228.537 93.9901 221.09C93.9901 213.644 84.1135 207.608 71.9301 207.608C59.7467 207.608 49.8701 213.644 49.8701 221.09C49.8701 228.537 59.7467 234.573 71.9301 234.573Z" fill="#2B303F"/>
<path d="M71.86 225.397C86.7275 225.397 98.78 218.034 98.78 208.951C98.78 199.869 86.7275 192.505 71.86 192.505C56.9925 192.505 44.9399 199.869 44.9399 208.951C44.9399 218.034 56.9925 225.397 71.86 225.397Z" fill="#EDEFF9"/>
<path d="M100.93 179.657C100.93 180.98 100.93 182.282 100.93 183.541C100.93 184.6 100.93 185.658 100.93 186.716C100.93 188.145 100.86 189.51 100.81 190.844C100.81 192.505 100.7 194.082 100.62 195.596C100.54 197.109 100.47 198.591 100.37 199.956C99.9602 205.935 99.9702 210.338 99.2702 212.063C95.4602 221.493 82.5701 216.296 76.2101 212.91C73.8601 211.661 72.3101 210.634 72.3101 210.634H71.7301C71.7301 210.634 69.8901 211.693 67.1701 212.836C60.5001 215.693 48.6101 220.762 45.3101 212.031C44.7201 210.465 44.1301 205.29 43.7701 199.871C43.6801 198.517 43.6001 197.067 43.5201 195.522C43.4401 193.976 43.4001 192.442 43.3401 190.78C43.3401 189.457 43.2701 188.092 43.2401 186.674C43.2401 185.616 43.2401 184.557 43.2401 183.499V179.615C43.0601 142.69 46.7601 83.6471 58.9801 58.4486C62.5101 51.1568 66.7501 46.7013 71.8201 46.4368H72.4001C77.4001 46.7119 81.6901 51.1463 85.2301 58.4063C97.2802 83.5095 101.15 142.32 100.93 179.657Z" fill="#EDEFF9"/>
<path d="M72.0001 144.839C77.6169 144.839 82.1702 140.02 82.1702 134.076C82.1702 128.131 77.6169 123.313 72.0001 123.313C66.3834 123.313 61.8301 128.131 61.8301 134.076C61.8301 140.02 66.3834 144.839 72.0001 144.839Z" fill="#2B303F"/>
<path d="M71.9999 146.416C69.6937 146.416 67.4394 145.692 65.5219 144.336C63.6044 142.98 62.1099 141.053 61.2274 138.798C60.3449 136.543 60.114 134.062 60.5639 131.668C61.0138 129.275 62.1243 127.076 63.755 125.35C65.3857 123.624 67.4633 122.449 69.7251 121.973C71.9869 121.497 74.3314 121.741 76.462 122.675C78.5926 123.609 80.4136 125.191 81.6948 127.22C82.9761 129.249 83.6599 131.635 83.6599 134.076C83.6573 137.348 82.4279 140.485 80.2418 142.798C78.0557 145.112 75.0915 146.413 71.9999 146.416ZM71.9999 124.89C70.2827 124.888 68.6035 125.424 67.1748 126.433C65.7461 127.441 64.632 128.875 63.9735 130.553C63.315 132.231 63.1416 134.079 63.4754 135.861C63.8092 137.644 64.6351 139.282 65.8486 140.567C67.0622 141.853 68.6088 142.729 70.2928 143.084C71.9768 143.44 73.7226 143.259 75.3093 142.564C76.8959 141.869 78.2521 140.691 79.2064 139.18C80.1606 137.669 80.6699 135.893 80.6699 134.076C80.6673 131.642 79.7533 129.309 78.1282 127.587C76.5031 125.865 74.2994 124.895 71.9999 124.89Z" fill="#424956"/>
<path d="M72.0001 113.195C77.6169 113.195 82.1702 108.377 82.1702 102.432C82.1702 96.488 77.6169 91.6692 72.0001 91.6692C66.3834 91.6692 61.8301 96.488 61.8301 102.432C61.8301 108.377 66.3834 113.195 72.0001 113.195Z" fill="#2B303F"/>
<path d="M72.0003 114.804C69.6926 114.806 67.4361 114.084 65.5161 112.729C63.5962 111.374 62.0988 109.447 61.2134 107.192C60.328 104.936 60.0943 102.454 60.5419 100.058C60.9894 97.6622 62.0981 95.4605 63.7278 93.7314C65.3575 92.0022 67.435 90.8233 69.6977 90.3435C71.9604 89.8637 74.3067 90.1046 76.44 91.0358C78.5734 91.9671 80.398 93.5467 81.6831 95.5752C82.9683 97.6037 83.6563 99.9898 83.6603 102.432C83.6629 105.709 82.4363 108.852 80.2499 111.172C78.0635 113.492 75.0963 114.798 72.0003 114.804ZM72.0003 93.2777C70.2827 93.2756 68.6031 93.8129 67.1742 94.8214C65.7452 95.83 64.6311 97.2646 63.9729 98.9436C63.3147 100.623 63.142 102.47 63.4766 104.253C63.8112 106.036 64.6381 107.674 65.8526 108.959C67.0671 110.245 68.6147 111.12 70.2994 111.474C71.984 111.828 73.7301 111.645 75.3166 110.949C76.9031 110.252 78.2586 109.073 79.2116 107.561C80.1646 106.048 80.6723 104.271 80.6703 102.453C80.6716 101.247 80.4484 100.052 80.0134 98.9371C79.5784 97.822 78.9401 96.8086 78.135 95.9546C77.33 95.1006 76.3738 94.4228 75.3212 93.9598C74.2686 93.4969 73.1402 93.2579 72.0003 93.2565V93.2777Z" fill="#424956"/>
<path d="M100.93 200.94C100.93 202.263 100.93 203.565 100.93 204.835C99.9302 208.327 97.2102 211.671 92.7902 214.359C81.3302 221.355 62.7901 221.355 51.2801 214.359C46.8601 211.65 44.1501 208.295 43.1401 204.835V200.951C44.1401 204.506 46.8401 207.893 51.3201 210.634C62.7902 217.63 81.3702 217.63 92.8302 210.634C97.2202 207.861 100 204.485 100.93 200.94Z" fill="#7391E0"/>
<path d="M100.84 207.099C100.84 208.518 100.77 209.893 100.72 211.216C99.5998 214.518 96.9398 217.661 92.7199 220.223C81.2599 227.229 62.7199 227.229 51.2099 220.223C46.9999 217.64 44.3399 214.476 43.2099 211.153C43.2099 209.83 43.1399 208.465 43.1099 207.057C44.1099 210.507 46.8399 213.788 51.1999 216.455C62.6699 223.461 81.2499 223.461 92.7099 216.455C97.0898 213.799 99.7898 210.528 100.84 207.099Z" fill="#7391E0"/>
<path d="M100.53 196.167C99.3202 199.268 96.7202 202.221 92.7502 204.634C81.2902 211.629 62.7502 211.629 51.2402 204.634C47.2402 202.178 44.6402 199.215 43.4302 196.083C43.5102 197.628 43.5902 199.078 43.6802 200.432C44.9702 203.353 47.4902 206.105 51.2402 208.401C56.1314 211.222 61.5279 212.924 67.0802 213.397C70.0721 213.705 73.0841 213.729 76.0802 213.471C81.9058 213.081 87.5811 211.351 92.7102 208.401C96.4302 206.126 98.9402 203.406 100.24 200.517L100.53 196.167Z" fill="#7391E0"/>
<path d="M85.0498 58.4275C76.4967 61.2058 67.3529 61.2058 58.7998 58.4275C62.3298 51.1356 66.5698 46.6801 71.6398 46.4155H72.2198C77.2698 46.733 81.5098 51.1674 85.0498 58.4275Z" fill="#7391E0"/>
<path d="M74.7898 163.37H69.7998V232.7H74.7898V163.37Z" fill="#7391E0"/>
<path opacity="0.4" d="M311.4 404.973L253.4 369.53C249.21 366.968 249.74 362.502 254.57 359.55L292.15 336.595L365.3 381.287L327.72 404.253C322.88 407.206 315.58 407.523 311.4 404.973Z" fill="#D6D8E5"/>
<path d="M315.63 402.337L257.63 366.884C253.45 364.333 253.97 359.867 258.8 356.915L296.39 333.96L369.54 378.652L332 401.607C327.12 404.57 319.81 404.888 315.63 402.337Z" fill="#B1B4C4"/>
<path d="M369.53 378.652V376.313L366.15 378.377L369.53 378.652Z" fill="#B1B4C4"/>
<path d="M254.8 362.661V360.28L258.27 361.804L254.8 362.661Z" fill="#B1B4C4"/>
<path d="M315.63 399.988L257.63 364.545C253.45 361.984 253.97 357.528 258.8 354.576L296.39 331.61L369.54 376.314L332 399.268C327.12 402.221 319.81 402.549 315.63 399.988Z" fill="#D6D8E5"/>
<path d="M296.57 331.716L287.52 299.924L361.47 344.818L369.53 376.313L296.57 331.716Z" fill="#9EA1AF"/>
<path d="M367.39 377.615L369.53 376.313L366.34 373.615L367.39 377.615Z" fill="#9EA1AF"/>
<path d="M294.24 332.912L285.19 301.12L359.14 346.014L367.38 377.615L294.24 332.912Z" fill="#B1B4C4"/>
<path d="M482 431.24L195.71 256.29C191.71 253.835 188.44 247.252 188.44 241.59V7.24738C188.44 1.57482 191.7 -1.02864 195.71 1.42665L482 176.334C486 178.79 489.27 185.372 489.27 191.034V425.377C489.24 431.039 486 433.642 482 431.24Z" fill="#C4C7D6"/>
<path d="M483.44 433.61L486.61 431.674L485.24 421.726L483.44 433.61Z" fill="#C4C7D6"/>
<path d="M187.93 2.87637L191.05 0.960938L195.54 3.68064C195.54 3.68064 190.76 4.45316 190.64 4.42141C190.52 4.38966 187.93 2.87637 187.93 2.87637Z" fill="#B1B4C4"/>
<path d="M479.34 432.796L193.09 257.888C189.09 255.433 185.82 248.861 185.82 243.188V8.84538C185.82 3.18339 189.07 0.579939 193.09 3.03523L479.34 177.943C483.34 180.398 486.61 186.981 486.61 192.643V427.007C486.61 432.648 483.36 435.251 479.34 432.796Z" fill="#E4E7F2"/>
<path d="M478.84 433.103L192.58 258.195C188.58 255.74 185.31 249.157 185.31 243.495V9.15202C185.31 3.49003 188.57 0.886579 192.58 3.34187L478.84 178.303C482.84 180.747 486.11 187.33 486.11 193.003V427.282C486.11 432.954 482.85 435.558 478.84 433.103Z" fill="#D6D8E5"/>
<path d="M482.17 418.847L189 239.685L189.1 10.0943C189.1 7.74489 190.66 6.79241 192.58 7.97772L478.84 182.875C479.849 183.571 480.69 184.509 481.294 185.612C481.898 186.714 482.25 187.952 482.32 189.225L482.17 418.847Z" fill="white"/>
<path d="M304.72 108.539L210.8 51.1568C210.366 50.8261 210.012 50.3925 209.765 49.8908C209.519 49.389 209.387 48.8331 209.38 48.2676V41.3357C209.38 40.2774 210.01 39.7165 210.8 40.1927L304.72 97.5744C305.152 97.9069 305.505 98.3408 305.751 98.8422C305.998 99.3435 306.131 99.8986 306.14 100.464V107.396C306.14 108.507 305.5 109.025 304.72 108.539Z" fill="#E9EAF2"/>
<path d="M280.6 110.2L211.23 67.8146C210.795 67.4873 210.439 67.0562 210.19 66.5561C209.942 66.0559 209.808 65.5009 209.8 64.936V61.4859C209.8 60.4276 210.44 59.8561 211.23 60.3429L280.6 102.729C281.029 103.06 281.379 103.493 281.622 103.992C281.865 104.492 281.995 105.045 282 105.607V109.057C282 110.169 281.38 110.687 280.6 110.2Z" fill="#E9EAF2"/>
<path d="M280.6 123.27L211.23 80.9378C210.795 80.6105 210.439 80.1793 210.19 79.6792C209.942 79.1791 209.808 78.6241 209.8 78.0592V74.5879C209.8 73.5296 210.44 72.9581 211.23 73.4449L280.6 115.862C281.033 116.191 281.387 116.623 281.633 117.123C281.88 117.623 282.013 118.177 282.02 118.741V122.191C282 123.27 281.38 123.768 280.6 123.27Z" fill="#E9EAF2"/>
<path d="M267.51 128.371L211.23 93.9764C210.795 93.6491 210.439 93.2179 210.19 92.7178C209.942 92.2177 209.808 91.6627 209.8 91.0978V87.6477C209.8 86.5894 210.44 86.0179 211.23 86.5048L267.51 120.889C267.945 121.219 268.301 121.653 268.549 122.154C268.797 122.656 268.931 123.212 268.94 123.778V127.228C268.94 128.34 268.3 128.848 267.51 128.371Z" fill="#7391E0"/>
<path d="M304.72 245.866L210.8 188.484C210.366 188.153 210.012 187.719 209.765 187.218C209.519 186.716 209.387 186.16 209.38 185.594V178.662C209.38 177.551 210.01 177.043 210.8 177.519L304.72 234.902C305.152 235.234 305.505 235.668 305.751 236.169C305.998 236.671 306.131 237.226 306.14 237.791V244.723C306.14 245.834 305.5 246.342 304.72 245.866Z" fill="#E9EAF2"/>
<path d="M280.6 247.527L211.23 205.195C210.795 204.865 210.44 204.431 210.191 203.93C209.943 203.428 209.809 202.872 209.8 202.305V198.855C209.8 197.744 210.44 197.236 211.23 197.723L280.6 240.056C281.032 240.388 281.385 240.822 281.632 241.323C281.878 241.825 282.011 242.38 282.02 242.945V246.395C282 247.495 281.38 248.003 280.6 247.527Z" fill="#E9EAF2"/>
<path d="M280.6 260.608L211.23 218.222C210.796 217.894 210.441 217.462 210.193 216.963C209.944 216.463 209.81 215.908 209.8 215.344V211.894C209.8 210.835 210.44 210.274 211.23 210.761L280.6 253.094C281.032 253.426 281.385 253.86 281.632 254.362C281.878 254.863 282.011 255.418 282.02 255.983V259.433C282 260.576 281.38 261.084 280.6 260.608Z" fill="#E9EAF2"/>
<path d="M267.51 265.688L211.23 231.303C210.795 230.973 210.439 230.54 210.19 230.039C209.942 229.537 209.808 228.98 209.8 228.414V224.964C209.8 223.853 210.44 223.345 211.23 223.831L267.51 258.216C267.945 258.546 268.301 258.979 268.549 259.481C268.797 259.983 268.931 260.539 268.94 261.105V264.555C268.94 265.666 268.3 266.143 267.51 265.688Z" fill="#7391E0"/>
<path d="M329.85 262.904C329.85 262.904 340.21 272.112 355.17 259.539C365.85 250.268 375.4 255.56 380.72 258.735C386.04 261.91 393.72 263.857 408.35 291.818C408.35 291.818 413.11 300.58 420.97 305.385C428.83 310.19 432.61 307.84 438.79 297.977C444.97 288.113 449.02 277.192 460.38 284.325V383.478L328.83 303.184V262.259L329.85 262.904Z" fill="#F5F6FF"/>
<path d="M301.26 220.868L211.26 165.836C210.825 165.506 210.47 165.072 210.221 164.571C209.973 164.069 209.839 163.513 209.83 162.947V107.988C209.83 106.93 210.47 106.369 211.26 106.845L301.26 161.878C301.695 162.208 302.051 162.641 302.299 163.143C302.547 163.644 302.681 164.201 302.69 164.767V219.746C302.69 220.836 302.05 221.344 301.26 220.868Z" fill="#E9EAF2"/>
<path d="M328.83 260.597V303.163L460.38 383.531V284.378" stroke="#E9EAF2" stroke-width="0.31" stroke-miterlimit="10"/>
<path d="M380.53 259.232V334.648" stroke="#E9EAF2" stroke-width="0.31" stroke-miterlimit="10"/>
<path d="M420.78 306.93V359.232" stroke="#E9EAF2" stroke-width="0.31" stroke-miterlimit="10"/>
<path d="M328.83 262.259C352.17 277.573 355.47 242.955 380.9 258.491C406.33 274.027 402.82 294.273 421.59 305.745C440.36 317.217 440.8 272.408 460.38 284.377" stroke="#E9EAF2" stroke-width="1.53" stroke-miterlimit="10"/>
<path d="M382.719 263.268C383.929 262.529 383.927 260.128 382.715 257.906C381.503 255.684 379.539 254.482 378.329 255.221C377.119 255.961 377.12 258.361 378.333 260.584C379.545 262.806 381.509 264.008 382.719 263.268Z" fill="#7391E0"/>
<path d="M464.41 289.563C465.626 288.823 465.629 286.414 464.417 284.182C463.204 281.95 461.236 280.739 460.02 281.479C458.805 282.218 458.802 284.627 460.014 286.86C461.227 289.092 463.195 290.302 464.41 289.563Z" fill="#7391E0"/>
<path d="M424.644 311.273C425.86 310.534 425.862 308.125 424.65 305.892C423.438 303.66 421.469 302.45 420.254 303.189C419.038 303.928 419.035 306.338 420.248 308.57C421.46 310.802 423.428 312.012 424.644 311.273Z" fill="#7391E0"/>
<path d="M331.025 266.292C332.235 265.552 332.234 263.152 331.021 260.93C329.809 258.707 327.845 257.505 326.635 258.245C325.425 258.984 325.427 261.385 326.639 263.607C327.852 265.829 329.815 267.031 331.025 266.292Z" fill="#7391E0"/>
<path d="M332.54 189.129L327.15 185.838C326.715 185.508 326.36 185.075 326.111 184.573C325.863 184.071 325.729 183.515 325.72 182.949V155.433C325.72 154.321 326.36 153.813 327.15 154.29L332.54 157.592C332.974 157.91 333.332 158.331 333.586 158.822C333.839 159.312 333.981 159.859 334 160.417V187.986C334 189.097 333.33 189.605 332.54 189.129Z" fill="#E9EAF2"/>
<path d="M345 196.717L339.61 193.415C339.175 193.088 338.819 192.657 338.57 192.157C338.322 191.657 338.188 191.102 338.18 190.537V134.446C338.18 133.388 338.82 132.817 339.61 133.303L345 136.605C345.435 136.935 345.791 137.369 346.039 137.87C346.287 138.372 346.421 138.928 346.43 139.494V195.585C346.39 196.686 345.75 197.194 345 196.717Z" fill="#7391E0"/>
<path d="M369.79 211.883L364.4 208.592C363.964 208.263 363.607 207.83 363.358 207.328C363.11 206.826 362.977 206.269 362.97 205.702V155.073C362.97 153.961 363.61 153.453 364.4 153.93L369.79 157.221C370.225 157.551 370.581 157.984 370.829 158.486C371.077 158.988 371.211 159.544 371.22 160.11V210.751C371.22 211.862 370.58 212.37 369.79 211.883Z" fill="#E9EAF2"/>
<path d="M382.21 219.471L376.82 216.18C376.385 215.85 376.03 215.416 375.781 214.915C375.533 214.413 375.399 213.857 375.39 213.291V171.339C375.39 170.281 376.03 169.72 376.82 170.196L382.21 173.498C382.645 173.825 383.002 174.257 383.25 174.757C383.498 175.257 383.632 175.812 383.64 176.377V218.328C383.64 219.45 383 219.958 382.21 219.471Z" fill="#7391E0"/>
<path d="M406.94 234.584L401.54 231.292C401.107 230.962 400.752 230.528 400.506 230.026C400.259 229.525 400.127 228.969 400.12 228.403V207.671C400.12 206.549 400.75 206.041 401.54 206.528L406.94 209.819C407.372 210.152 407.725 210.586 407.971 211.087C408.218 211.588 408.351 212.143 408.36 212.708V233.441C408.36 234.552 407.72 235.06 406.94 234.584Z" fill="#E9EAF2"/>
<path d="M419.35 242.172L414 238.87C413.565 238.543 413.209 238.112 412.96 237.611C412.712 237.111 412.578 236.556 412.57 235.991V165.476C412.57 164.354 413.21 163.846 414 164.333L419.39 167.624C419.826 167.954 420.182 168.387 420.43 168.889C420.679 169.391 420.812 169.947 420.82 170.513V241.029C420.78 242.14 420.14 242.648 419.35 242.172Z" fill="#7391E0"/>
<path d="M449.64 260.682L444.25 257.38C443.815 257.052 443.459 256.621 443.21 256.121C442.962 255.621 442.828 255.066 442.82 254.501V233.758C442.82 232.647 443.46 232.139 444.25 232.615L449.64 235.917C450.077 236.246 450.434 236.679 450.682 237.181C450.931 237.683 451.064 238.24 451.07 238.807V259.539C451.07 260.65 450.43 261.158 449.64 260.682Z" fill="#E9EAF2"/>
<path d="M462.06 268.259L456.67 264.957C456.234 264.629 455.877 264.196 455.628 263.694C455.38 263.192 455.247 262.635 455.24 262.068V234.552C455.24 233.441 455.88 232.933 456.67 233.409L462.06 236.7C462.495 237.031 462.851 237.464 463.099 237.966C463.347 238.467 463.481 239.023 463.49 239.59V267.159C463.49 268.259 462.85 268.746 462.06 268.259Z" fill="#7391E0"/>
<path opacity="0.4" d="M104.91 527.546L60.2699 500.306C55.2099 497.205 55.8399 491.839 61.6899 488.241L84.3499 474.388C90.1899 470.821 98.9999 470.398 104.09 473.573L148.73 500.856C153.79 503.946 153.16 509.322 147.31 512.91L124.65 526.763C118.81 530.277 110 530.721 104.91 527.546Z" fill="#D6D8E5"/>
<path d="M172 493.543V427.599L76.6801 416.244V482.6C76.6201 484.632 77.6801 486.569 80.0801 488.008L124.72 515.291C129.78 518.382 138.62 517.99 144.46 514.423L167.12 500.57C170.41 498.559 172.05 495.966 171.95 493.543H172Z" fill="#D6D8E5"/>
<path d="M171.94 434.796V427.599H164.61L123.9 402.719C118.84 399.618 110 400.009 104.16 403.576L81.5001 417.482C81.0971 417.724 80.7066 417.989 80.3301 418.276L76.6801 416.297C76.6801 416.297 76.6801 423.906 76.6801 424.16C76.6201 426.171 77.6801 428.107 80.0801 429.547L124.72 456.819C129.78 459.91 138.62 459.518 144.46 455.952L167.12 442.109C170.51 439.992 172.12 437.346 171.93 434.849L171.94 434.796Z" fill="#EDF0F9"/>
<path d="M124.72 448.924L80.0799 421.652C75.0199 418.561 75.6499 413.185 81.4999 409.587L104.16 395.744C110 392.167 118.84 391.786 123.9 394.876L168.54 422.149C173.6 425.239 172.97 430.616 167.12 434.214L144.46 448.057C138.62 451.634 129.78 452.015 124.72 448.924Z" fill="#E2E5F2"/>
<path d="M114.66 411.693V409.068H113.14L112.67 408.751C111.175 407.948 109.522 407.529 107.845 407.529C106.168 407.529 104.515 407.948 103.02 408.751C102.734 408.927 102.463 409.129 102.21 409.354L101.02 409.068V411.693C101.076 412.329 101.291 412.937 101.642 413.456C101.994 413.975 102.469 414.385 103.02 414.646C104.515 415.449 106.168 415.867 107.845 415.867C109.522 415.867 111.175 415.449 112.67 414.646C113.221 414.387 113.696 413.976 114.046 413.457C114.396 412.938 114.608 412.328 114.66 411.693Z" fill="#6E48E5"/>
<path d="M107.84 413.238C111.607 413.238 114.66 411.371 114.66 409.068C114.66 406.765 111.607 404.898 107.84 404.898C104.073 404.898 101.02 406.765 101.02 409.068C101.02 411.371 104.073 413.238 107.84 413.238Z" fill="#7391E0"/>
<path d="M131.58 422.773C131.208 423.655 130.562 424.376 129.75 424.816C128.255 425.614 126.604 426.03 124.93 426.03C123.256 426.03 121.605 425.614 120.11 424.816C119.298 424.376 118.652 423.655 118.28 422.773C117.78 421.419 118.4 419.969 120.11 418.911C121.605 418.112 123.256 417.697 124.93 417.697C126.604 417.697 128.255 418.112 129.75 418.911C131.47 419.916 132.08 421.366 131.58 422.773Z" fill="#5E42D3"/>
<path d="M131.58 422.773C131.208 423.655 130.562 424.376 129.75 424.816C128.255 425.614 126.604 426.03 124.93 426.03C123.256 426.03 121.605 425.614 120.11 424.816C119.621 424.779 119.163 424.547 118.829 424.167C118.495 423.787 118.309 423.287 118.309 422.768C118.309 422.249 118.495 421.749 118.829 421.369C119.163 420.989 119.621 420.758 120.11 420.72C121.605 419.922 123.256 419.506 124.93 419.506C126.604 419.506 128.255 419.922 129.75 420.72C130.564 421.163 131.21 421.888 131.58 422.773Z" fill="#7391E0"/>
<path d="M147.61 432.16V429.536H146.09L145.62 429.218C144.125 428.415 142.471 427.997 140.795 427.997C139.118 427.997 137.465 428.415 135.97 429.218C135.686 429.395 135.416 429.593 135.16 429.811L133.97 429.536V432.16C134.026 432.796 134.24 433.405 134.592 433.924C134.943 434.442 135.419 434.853 135.97 435.113C137.465 435.916 139.118 436.335 140.795 436.335C142.471 436.335 144.125 435.916 145.62 435.113C146.171 434.854 146.646 434.444 146.996 433.925C147.346 433.405 147.558 432.796 147.61 432.16Z" fill="#6E48E5"/>
<path d="M140.79 433.706C144.556 433.706 147.61 431.839 147.61 429.536C147.61 427.233 144.556 425.366 140.79 425.366C137.023 425.366 133.97 427.233 133.97 429.536C133.97 431.839 137.023 433.706 140.79 433.706Z" fill="#7391E0"/>
<path d="M65.3 401.088C65.03 403.554 62.3001 414.201 62.84 417.852C63.38 421.503 72.94 427.599 72.94 427.599L74.26 421.355L69 415.894L70.42 405.555L65.3 401.088Z" fill="#FFCEA9"/>
<path d="M72.6499 390.601C71.7267 390.145 70.6774 390.065 69.7019 390.375C68.7264 390.686 67.8928 391.365 67.3599 392.283C65.9599 394.739 64.5099 403.142 64.3599 404.581C64.3599 404.581 66.3599 407.449 69.2699 406.973L72.6499 390.601Z" fill="#EDEDED"/>
<path d="M83.5001 509.301C85.5689 509.904 87.7788 509.619 89.6501 508.507C91.1301 508.56 99.1802 504.909 100.27 507.968C101.27 510.656 97.7402 513.132 95.8801 513.608C91.8201 514.667 88.8201 516.783 87.1801 517.164C85.9701 517.429 84.3901 517.609 83.4301 516.593C82.2601 515.386 82.3601 510.899 83.5001 509.301Z" fill="#38226D"/>
<path d="M87.1801 516.413C88.8201 516.053 91.8201 513.905 95.8801 512.868C97.4401 512.465 100.13 510.666 100.4 508.507C100.76 510.973 97.6201 513.164 95.8801 513.608C91.8201 514.667 88.8201 516.783 87.1801 517.164C85.9701 517.429 84.3901 517.609 83.4301 516.593C83.1672 516.295 82.9812 515.931 82.8901 515.535C83.49 516.027 84.1909 516.363 84.9361 516.515C85.6814 516.668 86.4501 516.633 87.1801 516.413Z" fill="#9C73FF"/>
<path d="M70.46 503.1C72.5275 503.705 74.7373 503.424 76.61 502.316C78.09 502.316 86.13 498.718 87.23 501.777C88.23 504.454 84.7 506.931 82.84 507.417C78.78 508.476 75.77 510.592 74.14 510.963C72.92 511.227 71.35 511.407 70.38 510.402C69.22 509.185 69.32 504.698 70.46 503.1Z" fill="#38226D"/>
<path d="M74.1401 510.222C75.7701 509.851 78.7801 507.714 82.8401 506.666C84.4001 506.274 87.0901 504.465 87.3601 502.316C87.7201 504.782 84.5801 506.962 82.8401 507.417C78.7801 508.476 75.7701 510.592 74.1401 510.963C72.9201 511.227 71.3501 511.407 70.3801 510.402C70.1266 510.099 69.9449 509.736 69.8501 509.343C70.4518 509.832 71.1527 510.166 71.8972 510.318C72.6418 510.47 73.4096 510.438 74.1401 510.222Z" fill="#9C73FF"/>
<path d="M70.3 479.975C70.6465 476.814 71.2657 473.693 72.15 470.652C72.15 470.652 71.6 462.608 71.32 454.978C71.01 446.321 68.17 438.701 70.41 431.801L95.64 437.738C95.64 437.738 94.12 472.25 93.78 476.419C93.5969 479.673 93.2195 482.911 92.65 486.114C91.5 492.813 89.65 508.751 89.65 508.751C86.99 510.391 83.48 509.481 83.48 509.481C83.48 509.481 83.68 489.373 83.85 484.505C84.06 478.61 84.23 479.055 84.23 479.055L83.39 464.376L82.85 457.073C82.85 457.073 82.15 462.428 81.69 467.223C81.3 471.392 80.35 475.171 79.28 482.939C78.36 489.68 76.86 503.226 76.86 503.226C74.19 504.867 70.57 503.502 70.57 503.502C70.57 503.502 69.58 485.817 70.3 479.975Z" fill="#7391E0"/>
<path d="M73.9998 390.739C75.9298 390.844 77.3599 391.363 77.5999 390.739C77.8002 389.69 77.9437 388.63 78.0299 387.564C77.8099 386.971 77.6199 386.336 77.6199 386.336C75.2098 384.77 74.4498 382.007 74.1298 378.79C73.5898 373.297 76.3899 368.493 81.5799 367.921C86.4599 367.381 90.0599 371.011 91.0099 375.996C91.5299 378.451 92.5599 383.108 91.1699 387.151C90.3899 389.416 89.3899 391.215 88.3899 391.564C87.4224 391.531 86.4575 391.439 85.4999 391.289C85.4999 391.289 85.2399 392.813 85.0599 393.786C84.8799 394.76 84.9499 395.289 86.7899 396.485C88.6299 397.681 83.9999 400.189 80.9999 399.946C77.9999 399.702 74.5798 397.776 73.6398 395.713C72.5698 393.395 72.6598 390.675 73.9998 390.739Z" fill="#FFCEA9"/>
<path d="M76.76 391.024C76.23 392.431 77.58 394.199 81.19 395.342C84.8 396.485 85.13 395.003 85.13 395.003C87.528 396.139 89.8649 397.415 92.13 398.824C94.3 400.432 95.26 405.068 95.55 412.899C95.89 421.958 95.92 435.399 95.63 437.717C95.63 437.717 91.63 441.95 86.4 441.537C81.17 441.125 72.51 436.246 70.4 432.489C70.46 424.541 71.34 423.25 70.12 418.678C67.3401 408.2 65.8801 403.861 67.2301 396.95C68.3401 391.204 69.9 390.495 72.05 390.548C73.6271 390.615 75.1995 390.774 76.76 391.024Z" fill="#F4F4F4"/>
<path d="M103.71 420.413C99.4499 421.546 98.4599 418.709 97.8999 416.36C96.5399 410.666 95.8199 405.533 94.8099 402.305C93.6199 398.496 92.3699 397.892 90.6299 397.152C88.6299 396.273 86.8099 398.115 87.4899 402.962C88.329 408.586 89.6341 414.121 91.3899 419.503C91.9199 421.27 93.0999 424.414 94.8799 425.938C97.0699 427.811 100.38 427.737 105.38 426.424C107.51 425.853 109.85 424.509 113.88 422.519C114.96 421.99 115.8 421.63 117.88 420.604C119.968 419.617 121.798 418.106 123.21 416.201C124.3 414.529 124.44 413.746 124.21 413.365C123.98 412.984 123.44 412.994 122.86 413.703C122.018 414.888 120.982 415.903 119.8 416.699C119.8 416.699 121.14 415.227 121.87 414.275C122.522 413.428 123.064 412.492 123.48 411.492C123.86 410.518 123.07 409.195 122.48 409.894C121.89 410.592 121.59 411.291 120.48 412.688C119.891 413.433 119.22 414.102 118.48 414.677C119.163 413.702 119.768 412.668 120.29 411.587C120.761 410.742 120.993 409.773 120.96 408.793C120.96 408.285 120.25 407.682 119.61 408.645C118.992 409.968 118.227 411.208 117.33 412.338C116.33 413.397 115.53 414.01 115.51 413.714C115.49 413.418 116.09 412.836 116.44 411.597C116.79 410.359 116.44 409.036 115.79 408.899C115.14 408.761 115.27 408.793 114.79 409.957C114.073 411.151 113.429 412.392 112.86 413.672C112.525 414.863 111.925 415.952 111.11 416.847C110.06 418.032 107.75 419.334 103.71 420.413Z" fill="#FFCEA9"/>
<path d="M89.0499 396.368C91.8899 395.924 93.8999 397.279 95.1499 401.829C96.3999 406.38 97.2799 410.074 97.2799 410.074C96.1581 411.789 94.4586 412.986 92.5299 413.418C89.1299 414.296 87.9099 412.571 87.9099 412.571C87.9099 412.571 86.9699 407.809 86.3799 404.56C85.7899 401.311 85.5399 396.919 89.0499 396.368Z" fill="#EDEDED"/>
<path d="M90.83 375.287C90.83 375.287 95.31 368.069 85.59 366.598C78.59 365.54 74.08 370.302 73.59 375.477C73.09 380.42 75.97 385.553 78.04 387.585C80.0805 388.134 82.2412 387.859 84.1 386.812C84.2191 385.468 84.2658 384.118 84.24 382.769C84.24 382.769 80.79 375.149 90.83 375.287Z" fill="#3A2C6D"/>
<path opacity="0.4" d="M382.58 513.577C396.183 513.577 407.21 506.839 407.21 498.528C407.21 490.216 396.183 483.478 382.58 483.478C368.977 483.478 357.95 490.216 357.95 498.528C357.95 506.839 368.977 513.577 382.58 513.577Z" fill="#D6D8E5"/>
<path d="M382.37 353.316C383.37 351.591 391.17 350.448 393.73 357.423C394.73 360.068 394.55 366.831 395.36 371.075C396.17 375.319 398.08 377.732 398.77 381.171C399.46 384.611 398.34 390.389 390.49 391.416C382.64 392.442 376.61 389.521 374.76 386.875C372.91 384.23 372.87 378.599 374.76 375.573C376.65 372.546 378.15 370.101 378.1 366.164L382.37 353.316Z" fill="#3A2C6D"/>
<path d="M387.51 352.12C387.51 352.12 381.65 350.331 378.1 353.676C376.93 354.82 376.079 356.28 375.638 357.9C375.198 359.519 375.184 361.235 375.6 362.862C376.07 364.82 377.02 367.487 378.49 367.635C379.96 367.784 387.51 352.12 387.51 352.12Z" fill="#3A2C6D"/>
<path d="M389.75 369.021C389.75 369.021 389.36 375.922 389.48 376.43C389.6 376.938 392.04 377.488 392.73 378.038C393.42 378.589 389.18 385.648 387.03 386.685C384.88 387.722 378.21 385.066 377.74 381.563C377.32 378.324 379.65 375.816 380.55 374.937C381.161 374.876 381.776 374.859 382.39 374.885L382.59 371.54C385.51 370.556 389.75 369.021 389.75 369.021Z" fill="#FFCEA9"/>
<path d="M374 382.071C374 381.87 373 382.43 373 382.441C373 382.452 372.53 400.168 371.71 401.776C369.62 405.533 364.09 411.904 363.95 412.613C363.54 414.73 364.72 412.836 366.62 412.613C367.69 412.476 373.98 405.745 375.39 404.21L375.48 404.263V404.094L375.66 403.893C375.696 403.414 375.696 402.933 375.66 402.454C378.31 383.203 375.09 381.922 374 382.071Z" fill="#FFCEA9"/>
<path d="M390.64 377.107C392.48 377.404 394.57 378.441 394.86 379.499C395.617 383.328 395.438 387.299 394.34 391.035C392.75 395.479 391.68 398.305 390.76 400.221C390.76 400.221 382.83 403.819 376.43 399.617C376.43 399.617 375.99 394.855 375.96 392.304C370.06 386.854 375.11 380.134 380.11 374.917C380.709 374.859 381.311 374.859 381.91 374.917C381.91 374.917 377.45 380.504 380.55 383.679C387.2 381.499 388.52 378.324 390.64 377.107Z" fill="#F4F4F4"/>
<path d="M377.56 360.46C378.21 356.026 381.24 352.671 385.56 352.935C387.301 353.035 388.968 353.711 390.326 354.869C391.683 356.026 392.663 357.606 393.125 359.385C393.587 361.164 393.509 363.052 392.902 364.781C392.294 366.511 391.188 367.994 389.74 369.022C389.591 369.693 389.366 370.344 389.07 370.958C387.54 372.842 383.47 374.038 382.13 374.059C380.97 374.059 379.97 372.927 378.88 371.022C376.62 367.053 377.2 362.651 377.56 360.46Z" fill="#FFCEA9"/>
<path d="M386.91 353.02C389.91 353.644 392.43 354.554 393.26 357.698C393.82 359.878 394.56 364.047 393.86 365.751L393.42 367.011L389.75 369.021C389.75 369.021 388.03 367.508 388.57 363.074C388.549 362.476 388.369 361.896 388.05 361.402C387.821 360.982 387.649 360.529 387.54 360.058C387.104 358.86 386.253 357.883 385.16 357.327C382.43 355.708 378.43 357.105 377.87 357.698C378.643 355.941 379.963 354.518 381.608 353.666C383.253 352.815 385.125 352.587 386.91 353.02Z" fill="#3A2C6D"/>
<path d="M392.43 493.353C390.89 494.675 388.5 493.765 388.43 493.882C386.637 495.508 384.761 497.027 382.81 498.433C381.81 499.226 380.36 500.295 380.63 501.819C381.11 504.56 385.25 503.724 386.81 502.878C388.37 502.031 389.65 500.655 391.13 499.703C392.18 499.015 393.22 498.644 393.39 497.247C393.44 496.369 392.7 493.321 392.43 493.353Z" fill="#38226D"/>
<path d="M393.33 496.655C393.12 498.009 392.1 498.38 391.05 499.067C389.55 500.052 388.23 501.48 386.67 502.316C385.11 503.152 381.62 503.851 380.61 501.904C381.16 504.539 385.23 503.713 386.77 502.877C388.31 502.041 389.61 500.655 391.09 499.702C392.14 499.014 393.18 498.644 393.35 497.247C393.358 497.049 393.351 496.851 393.33 496.655Z" fill="#9C73FF"/>
<path d="M381.66 491.077C380.25 492.294 378.13 491.606 378.03 491.722C376.387 493.2 374.671 494.585 372.89 495.871C372.01 496.601 370.64 497.575 370.89 498.972C371.33 501.48 375.12 500.708 376.56 499.946C378 499.184 379.15 497.903 380.51 497.014C381.51 496.379 382.42 496.051 382.57 494.76C382.67 493.977 381.91 491.045 381.66 491.077Z" fill="#38226D"/>
<path d="M382.56 494.241C382.37 495.48 381.43 495.818 380.47 496.443C379.1 497.353 377.89 498.655 376.47 499.427C375.05 500.2 371.85 500.835 370.92 499.046C371.42 501.459 375.15 500.708 376.57 499.946C377.99 499.184 379.16 497.903 380.52 497.014C381.52 496.379 382.43 496.051 382.58 494.76C382.593 494.587 382.586 494.413 382.56 494.241Z" fill="#9C73FF"/>
<path d="M373.38 415.513C374.06 409.904 376.01 401.755 376.01 401.755C377.853 402.667 379.847 403.188 381.88 403.29C384.86 403.279 387.833 402.974 390.76 402.38C391.714 404.146 392.759 405.856 393.89 407.502C395.42 409.746 398.39 414.656 397.67 423.239C397.2 428.848 394.23 452.671 394.23 452.671C395.386 456.676 396.003 460.834 396.06 465.021C395.779 470.001 395.158 474.953 394.2 479.838L392.43 493.352C392.43 493.352 390.07 495.162 388.43 493.882L388.64 480.653C388.44 477.414 388.13 472.641 387.94 469.593C387.62 464.619 386.78 456.735 386.54 454.777C386.3 452.819 385.7 449.358 385.41 445.506C385.12 441.654 383.76 422.043 383.76 422.043L383.57 425.716C383.57 425.716 383.38 431.674 382.57 439.029C381.76 446.384 381.48 449.612 381.48 449.612C382.247 451.096 382.784 452.7 383.07 454.364C383.21 455.952 384.92 468.524 383.9 474.917L381.79 491.183C381.267 491.567 380.664 491.814 380.033 491.902C379.401 491.991 378.759 491.918 378.16 491.691L376.92 475.298C376.09 469.064 374.33 455.846 374.06 454.131C373.46 450.668 373.105 447.162 373 443.643C372.56 436.532 372.7 421.112 373.38 415.513Z" fill="#FFCEA9"/>
<path d="M390.76 400.22L395.32 409.904C395.32 409.904 402.32 420.678 395.07 448.374L396.42 456.925C396.42 456.925 382.78 466.186 373.65 456.925C373.65 456.925 370.49 431.325 372.17 419.524C373.11 412.743 374.531 406.046 376.42 399.49C376.42 399.49 378.66 402.104 390.16 400.379" fill="#7391E0"/>
<path d="M380.11 374.916C380.11 374.916 376.49 373.742 372.64 382.24L374.08 383.15C374.08 383.15 377.87 377.097 380.11 374.916Z" fill="#EDEDED"/>
<path d="M351.84 420.964L367.42 411.386L378.6 418.212L363.02 427.8L351.84 420.964Z" fill="#F4F4F4"/>
<path d="M365.41 412.084C364.433 412.188 363.488 412.513 362.64 413.037C362.329 413.325 361.994 413.583 361.64 413.81C361.49 413.884 361.34 413.989 361.18 414.064C360.942 414.156 360.726 414.304 360.55 414.497C360.376 414.769 360.282 415.09 360.28 415.418C360.2 415.811 360.18 416.215 360.22 416.614C360.36 417.207 360.94 417.154 361.22 416.741C361.372 416.535 361.46 416.283 361.47 416.021C361.479 415.771 361.543 415.527 361.657 415.308C361.772 415.089 361.934 414.902 362.13 414.762L365.85 412.317C365.807 412.237 365.742 412.171 365.664 412.13C365.585 412.088 365.497 412.072 365.41 412.084Z" fill="#FFCEA9"/>
<path d="M395.05 382.557C394.54 380.314 392.88 381.033 391.45 379.721C388.14 384.685 390.34 398.104 390.79 399.533L378.07 408.116L377.21 408.677C375.762 409.683 374.162 410.42 372.48 410.857C371.21 411.015 370.55 412.91 369.19 413.079C369.086 413.083 368.985 413.119 368.901 413.183C368.816 413.247 368.751 413.336 368.714 413.438C368.677 413.541 368.669 413.653 368.691 413.76C368.713 413.868 368.765 413.966 368.84 414.042C369.38 414.592 370.84 414.137 371.84 412.91C371.835 412.938 371.835 412.966 371.84 412.994C371.848 413.191 371.904 413.382 372.002 413.548C372.1 413.715 372.237 413.853 372.4 413.947C372.473 413.994 372.555 414.023 372.64 414.032C372.639 414.122 372.664 414.21 372.71 414.286C372.782 414.441 372.889 414.575 373.021 414.677C373.154 414.778 373.308 414.844 373.47 414.868C373.541 415.085 373.677 415.271 373.858 415.399C374.038 415.527 374.253 415.589 374.47 415.577C374.761 415.561 375.037 415.429 375.24 415.206C376.324 414.768 377.282 414.039 378.02 413.09C378.671 412.373 379.359 411.695 380.08 411.058C383.53 409.481 393.88 404.803 394.34 404.136C395.06 403.131 395.79 385.732 395.05 382.557Z" fill="#FFCEA9"/>
<path d="M396.21 388.579C396.21 388.579 392.14 390.505 388.76 388.706L389.25 381.965C389.25 381.965 389.3 378.345 392.35 377.986C395.4 377.626 397 381.764 396.21 388.579Z" fill="#EDEDED"/>
</svg>
